<svg xmlns="http://www.w3.org/2000/svg" xmlns:xlink="http://www.w3.org/1999/xlink" width="460.242" height="460.402" xmlns:v="https://vecta.io/nano"><style><![CDATA[.B{fill:#4a4240}.C{fill:#fff}.D{stroke:#a6a592}.E{stroke-width:3}.F{stroke-miterlimit:10}.G{fill:#9cd4e6}]]></style><path fill="#b3a67f" d="M235.647 444.733h12.78 6.035 2.193v2.715l4.94-2.715 3.29-3.87h5.485 3.292l4.937 3.292 4.39 7.736 11.52-2.247 3.841 2.247h7.133l3.291-7.158h8.23l4.39 4.361 6.581 2.797h5.486l6.583-5.514h8.23v-5.515l12.068-8.228 14.813 6.582 9.325-6.582 10.973-4.39h8.231l10.421-4.39 13.166-4.388 12.617-7.681 13.718-9.326v-6.036l-6.585-4.938h-4.938v-2.742H436.6l-5.483-6.583-5.484-.271 3.838-3.568-2.743-8.934-1.646-4.784-3.292-3.838-3.291-3.293 3.84-3.461-1.097-6.689-2.195-2.469-2.468 1.647v-1.475l1.37-1.279-1.37-2.184-.275-1.92-3.565-1.921.272-2.194 5.215 2.469-1.922-4.115-5.763-4.114-1.646-6.856-.822-3.566.552-1.921-1.646-3.842h3.563l.275-4.909 3.566-6.608-.548-4.391 1.37-3.564-5.76-3.02-2.195-3.841 1.921-6.581 2.194-7.68 3.84-4.938 4.116-3.842-1.92-6.309-2.743-2.745h-5.213l-1.647-6.324-2.189 1.388-.55-4.937-2.47-1.374-4.662-4.924h-3.292l-4.664-3.307.548-8.226-2.469-4.39.824-6.581 2.743-7.133 1.645-4.664 1.92-6.857 2.47-4.909 2.744-4.966 1.646-5.21h-2.469l1.372-3.018.547-3.566h2.472l2.718-2.945-2.992-3.639 1.645-1.92-56.506-41.146-4.196-5.485h-4.584v-4.389l4.584-3.292-2.389-13.166L197.409 19.53l-3.841 3.84 1.372 1.646-5.212 4.115 3.566 1.92 2.441 2.917-8.202-1.272v2.469l5.213 4.116-8.505-.274-2.743-1.098v2.743l-1.373 1.372 3.018 1.92v2.193h-6.309l4.115 3.567-4.115.823-2.467 1.399-2.195-1.399-3.019 1.399-2.193 2.99v2.469l6.583-2.195 1.92 2.195 2.467 1.644-6.855-.822.273 1.373-2.467.547-3.292.548-1.646 2.743 4.387 1.097 1.373 1.646 9.873.274 6.584-4.664 3.017 3.018-.548 4.39-5.761 1.372-4.938 2.743-2.193 3.018-4.938 1.37 2.47 2.195-.547 1.645-6.036-.273-6.036-4.389-5.761-2.193-4.39 2.467v5.486 4.39l3.292 5.211 1.646 2.471-4.938-1.646-1.645 2.194-2.469 3.016v2.195l-1.919-3.291-1.373-3.017 4.939-1.923 1.095-3.839-2.195-4.116.824-2.469v-1.92h-4.663l-1.919-6.034-5.76 7.679v-3.84l-5.212-1.096-2.469-4.115v-2.468l-6.583 4.664-4.663-1.098v2.195l3.292 2.467 1.095 1.646h-2.466-3.292l-1.372 1.645v4.116 3.841l-3.016-3.566v1.646l-2.195 3.839-1.921.823-1.371-6.308 3.565-2.195-4.938-3.84h2.195l-2.195-5.76v-2.469l-4.664 1.921 3.292-14.54-3.292 1.646 4.115-13.716 1.372-6.309 2.195-3.017 1.371-6.858 1.646-7.954-.274-3.292-44.439-1.372-4.114 2.195-2.992.019-3.292.422v2.491l1.621 6.396 2.744 2.742 6.034 3.554 1.371 5.226 1.921 5.486-.549 9.6 3.292 5.762-2.469 6.308v3.567l-3.84 1.098-4.389 1.37-2.743.549-2.468 4.938-4.115 4.938 1.921 1.098 3.017-.275-3.017 4.937.547 5.763 5.762-.55 4.387 3.292 5.212-.823-1.372 6.31 1.097 3.291-4.938 3.017-1.92 2.469-.274 2.468-4.937 3.019-3.565 4.388-1.921 5.761-7.68 9.6s-.823 5.212-2.743 5.212-3.84 4.665-3.84 4.665l-6.31 4.664-4.937 3.289-4.663.824-8.503 1.371-1.92 9.052s-1.645 7.682-1.372 8.504 6.583 20.572 7.406 21.943 3.565 8.23 3.565 8.23l-4.938 12.618s1.097 9.6 1.645 10.423 6.31 12.071 6.859 12.892 8.23 8.229 8.23 8.229l9.051 6.858 9.876 15.91 7.406 17.007 9.051 21.945s9.328 13.441 10.699 13.441 5.485-1.098 5.485-1.098l3.566 1.371 2.744-1.371 6.034 3.291 3.019 6.857 4.939 3.29 8.776.547 1.373 4.938 8.776 1.098 4.115 2.195h5.488l3.84 5.211 9.326 2.025 5.484 2.912 7.133 1.646 6.583 3.293 9.051 4.66 9.601-.273h4.389l9.877 6.856 8.227 10.975 6.035 13.164.275 12.345.824 17.282 4.388 11.793 3.018 6.065h15.198z"/><path d="M199.327 460.604l3.567-2.744 4.938-5.432v-10.477l-3.292-5.485 3.292-6.584-3.292-8.78v-9.873l-2.743-6.035 2.743-5.487-2.743-4.389-6.035-8.23v-6.581l-4.938-7.133v-4.489l3.292-5.386h5.211l8.505 7.134 4.388 7.128 4.388 8.778v6.585 7.132 6.035l5.974 4.938v7.677l-3.229 7.682 5.485 4.389v4.393l4.449 3.287 4.326 8.23v8.778l-1.217 4.536M107.458.201l-.878 2.764-4.652 8.958 2.584 1.895.861 3.619.864 2.583 3.394.047.045 4.396-3.546 13.417-1.955 2.625-4.969 20.709 2.094.015-2.094 12.877 4.664-1.92v2.469l1.579 4.145.365.959-1.985-.355 3.451 4.601-2.53 1.266 1.862 7.488 1.921-.822 2.876-4.682 2.335 2.761V82.06l1.372-1.646h6.773l-4.026-4.46-1.376-1.848 4.663 1.098 5.224-2.817 3.829 4.737 5.212 1.096v3.84l5.76-7.68 1.919 6.034h4.663l-.823 4.389 2.194 4.115-1.704 2.678-5.061 2.416 4.023 6.975v-2.195l4.114-5.211 6.24 1.35-5.061-7.82-1.179-9.439 4.39-2.468 5.76 2.194 6.036 4.389 6.036.273.547-1.646-.77-2.16 3.238-1.404 2.193-3.018 10.699-4.115.549-4.926-3.108-3.906-6.438 4.371h-8.859l-4.486-2.481-.698-1.561 5.759-1.098-.273-1.371 7.404.644-4.937-4.198-5.529 1.209-.069-2.289 4.227-3.045 2.195 1.397 7.679-2.276-3.955-3.512h6.309l-.169-2.7-2.99-1.724.257-1.062v-2.743l2.743 1.097 9.425-.283-4.949-3.681-1.184-2.345 9.009 1.196-2.876-5.062 1.224-3.335v-2.531l3.87-3.088-.337-.998 1.87.604v-2.239l1.551-2.928-1.809-2.069-1.427-1.015-.383-2.602-.19-.963-.327-2.655.689-2.067-1.213-1.214 2.807.069.944-2.136" class="G"/><path d="M189.178 67.894l7.131 3.84 5.488 3.293 6.035 4.387v2.743l3.837 3.841 3.293 3.292 3.292 4.936v4.39h4.328v9.327l6.705 2.194 2.68-6.034.258-7.214 3.422 3.922 4-4.39 2.745-7.405 1.848-8.307.896-4.037v-8.778-3.841l3.341-16.167-21.367-11.563-2.82 1.397-1.708 2.194-1.31 2.744 1.31 2.469 1.434 2.193 2.195 1.922 3.076 4.662v6.035l-2.531 7.405h-2.466l-3.292-1.096-2.469 1.096-2.195-1.37-3.291-.824-1.92 1.372-4.664-2.741-7.405-.552-2.469-1.644-3.566.275-1.372 1.921zM249.8 83.98l7.134 2.469 5.481 1.921 8.505 4.389 3.84 1.644v3.293h1.92v4.937l-3.29 5.488-5.489 3.016-4.659 1.647-6.859 1.372-1.371 1.37-7.133-1.919-3.842 1.919-3.291 3.566-8.225 5.425.031-26.396 3.11 3.518 4.328-4.738 2.485-6.512 2.096-8.544zm84.075 9.679h-4.115v-3.292l-4.939 1.645-2.194 1.647v5.21l2.47 1.608 4.663 1.961 4.115 1.917h3.29l2.744 1.098 2.192-6.308zm-14.127 168.072l-4.663 3.018v2.192l-1.921 1.372v4.665 3.839l3.293 3.292v4.391 4.661l.055 3.9 5.618-2.589 6.991-.438 4.75-3.166 4.478-4.773-4.887-.888v-4.39l-1.646-1.084-1.92-4.677-3.567-2.743-4.115-4.936zm44.163 10.327l6.309 2.469h4.389l1.921 2.741h4.111l-13.712 14.542 3.839 1.92 5.488 6.585.544 4.386 1.92 2.194.274 5.488 1.646 2.192v2.47l6.86 6.309 1.371 7.406v3.842l-4.938 2.191.274 3.292 1.098 3.019-1.646 2.743h-4.94l-3.563 1.371-6.033 2.196-5.213-1.647-8.23 3.567-9.05 2.299-6.586 2.912-2.194 2.745v1.095 1.92h-1.92l-3.291-1.92-2.194-.275v5.213l1.92 5.484 3.291 3.566 1.92 3.568-.273 5.484-.273 3.566-8.232 3.565-4.663 2.193-6.308 1.373h-3.564v1.646h-5.213l-2.469-3.293v-2.739l-3.84-.824-3.842-3.567-2.469 1.646s-3.019-.824-3.841-.824-4.39-.271-4.39-.271l-1.917-2.743-4.938-6.584-3.291-5.763 2.194-6.583h2.194l.822-4.387v-3.292l1.642-3.291 1.376-2.469 4.39 1.096 4.111-1.096 7.408-2.47 7.132-2.194 7.134-2.47 1.921-7.955-1.103-34.014-.541-8.204 5.479-2.493 7.407-.548 4.939-3.569 4.938-5.484 6.034-.549 3.02-2.742 2.19 1.371 2.469-3.292h6.311l4.391-4.113zM66.563 244.447l12.894 1.922-1.646 2.999 3.29 1.664v3.843 3.29 4.115 3.566l1.647 2.467-13.441-3.564.274-4.937-3.018-3.43-1.371-5.35zm-37.58-25.508l8.504 20.195-5.324 1.73-1.386-1.338-5.631-3.817-3.021-3.723v-4.543-5.358l2.744-1.774zM308.23 106.518l-2.194 1.369-1.374 2.196v-3.565l1.786-1.92zm-32.921 22.174l1.371 3.841 3.841 3.841 2.469 5.761 3.292 4.936v5.486 5.76 1.372h-6.584l-3.018-10.148-6.858-7.956 3.292-4.937zM23.158 162.87l.64 2.434-.92 3.898-2.993-.172-.228-3.802.494-1.837zm370.699-5.508l-36.381-25.079-.526 6.448-5.702 1.19 1.781 6.138 5.692-1.156 4.29 9.23 5.716.937 3.914-2.314 7.694 8.143v5.155l4.427.889 5.868-4.863zm-8.665 55.512l4.229 2.182-1.064 6.217-.036.711.551 5.612-4.352 4.39-1.761-7.372.505-8.55zm-170.23 93.021l3.567-4.939 4.053-2.195 5.275-3.566 7.79-5.483 3.18-5.212 9.052-5.488 4.389-6.034-14.266-8.229-2.355-3.565-2.034-4.802-5.756 2.059-6.859 6.308-2.469 3.564-5.486 4.665-4.665 2.755-5.21 3.553-6.034 1.851-4.389 4.185-2.195 7.705-3.291 6.008 7.954-3.29 5.761-4.116 1.369 3.841 4.116 3.565zm87.753-21.206l-3.136 3.074-3.33 3.263-.989 4.889 9.368 3.909 3.938 2.941 5.268-5.158 2.348-3.878z" fill="#85ae85"/><path d="M169.298 460.201c0-3.769-2.063-14.934-2.063-14.934h-2.99v-6.062l5.185-2.194 5.484-7.13-10.668-9.877 15.059-12.068-2.194-11.248-6.584-10.149-4.388-16.613-9.327-4.783s-4.995-5.576-4.427-7.908M57.17 309.211l-55.883 7.327H.037m0-231.273c2.5.062 6.454 2.928 6.454 2.928l2.712 3.841 12.923 1 7.681-6.036v-6.584l3.566-6.632 4.114 1.148h5.761l4.937-3.841 9.063 4.927" fill="none" class="D E F"/><g class="B"><path d="M125.195 405.902h5.135v.521h-6.097l5.277-8.151h-4.771v-.52h5.733l-5.277 8.15z"/><use xlink:href="#B"/><path d="M139.651 406.423l.988-8.97 3.757 8.021 3.757-8.021.988 8.97h-.572l-.767-6.968-3.406 7.279-3.406-7.279-.767 6.968h-.572zm11.74-8.671h1.898c1.508 0 2.392.871 2.392 2.171 0 .936-.441 1.547-1.014 1.897 1.131.183 1.794 1.053 1.794 2.172 0 1.521-1.118 2.431-2.691 2.431h-2.379v-8.671zm.572 3.926h1.378c.442 0 .806-.053 1.183-.364.352-.286.572-.728.572-1.325 0-.689-.299-1.119-.585-1.353-.429-.339-.988-.364-1.443-.364h-1.104v3.406zm0 4.224h1.456c.585 0 1.3 0 1.885-.52.468-.416.56-.923.56-1.326 0-.779-.273-1.313-.924-1.611-.233-.104-.662-.248-1.625-.248h-1.352v3.705zm6.942-8.15v8.671h-.572v-8.671h.572z"/><use xlink:href="#B" x="29.121"/></g><path d="M19.658.201c0 2.989-.846 11.927-.846 11.927l-2.446 6.568v9.232 6.584l8.047-1.464 5.394 3.293 1.92 2.378 13.898-14.083 5.852-2.56 3.315.091m398.816 378.814c3.665-.021 1.19-.645 5.053 2.02l.028 2.507-.102 2.57v2.676l.149 2.297-.215 2.151-2.247 4.803.795 1.84-.775 3.274-2.777 10.519-.257 3.382v12.069l1.109 9.112" fill="none" class="D E F"/><path d="M.037 112.701l6.454 1.455v7.157 9.476l3.449 7.234 5.857 11.887 3.445 5.511-1.033 19.985 7.407 7.061v7.58l-1.895 7.063 2.067 3.445 4.019 7.406 2.011 7.752-2.835 3.226-6.858 3.146v10.296l4.525 3.838 4.995 3.307.518 1.338 4.306-1.895 3.445.557 7.752 8.054 8.957 10.861v6.308h-2.41l2.239 5.918 1.205 6.372v4.098l2.586 5.203 6.546 9.476 5.339 10.079v3.316l4.306 5.899 3.446 2.855-.344 2.83.942 5.039 2.27.989-1.489 4.65-1.208-1.892-4.651 3.959-10.208-9.128-4.528-2.259-2.317 2.259-3.619-.172-.235-.553-.97-1.513-1.206-4.209 2.721-4.337 2.132-4.417-8.141-8.436-4.119-4.272-3.803-10.444-4.638-17.746-12.575-4.883-6.03-9.475-4.306-12.4h-2.412l-5.685-14.99-5.424-3.005" class="G"/><g class="B"><use xlink:href="#C"/><path d="M372.896 449.366c0 2.496-1.963 4.459-4.498 4.459-2.548 0-4.498-1.963-4.498-4.459s1.963-4.472 4.498-4.472 4.498 1.976 4.498 4.472zm-.597 0c0-2.223-1.664-3.952-3.9-3.952s-3.9 1.729-3.9 3.952c0 2.21 1.664 3.939 3.9 3.939s3.9-1.729 3.9-3.939zm2.339 3.796h5.135v.521h-6.097l5.277-8.151h-4.771v-.52h5.733l-5.277 8.15zm11.414-2.326h-3.692l-1.157 2.847h-.624l3.653-8.932 3.602 8.932h-.624l-1.158-2.847zm-.208-.521l-1.625-4.108-1.651 4.108h3.276z"/><use xlink:href="#C" x="36.465"/><path d="M400.832 445.012h1.898c1.508 0 2.392.871 2.392 2.171 0 .936-.441 1.547-1.014 1.897 1.131.183 1.794 1.054 1.794 2.172 0 1.521-1.118 2.431-2.691 2.431h-2.379v-8.671zm.572 3.926h1.378c.442 0 .806-.052 1.183-.364.352-.286.572-.728.572-1.326 0-.688-.299-1.118-.585-1.352-.429-.338-.988-.364-1.443-.364h-1.104v3.406zm0 4.224h1.456c.585 0 1.3 0 1.885-.52.468-.416.56-.923.56-1.326 0-.78-.273-1.313-.924-1.612-.233-.104-.663-.247-1.625-.247h-1.352v3.705zm6.943-8.15v8.671h-.572v-8.671h.572zm9.984 8.671l-.768-.832c-.377.299-1.325.975-2.847.975-2.535 0-4.498-1.963-4.498-4.459s1.963-4.472 4.498-4.472c2.522 0 4.498 1.976 4.498 4.472 0 .91-.26 2.08-1.248 3.12l1.118 1.196h-.753zm-1.131-1.222l-2.172-2.327h.755l1.807 1.95c.429-.469 1.027-1.326 1.027-2.718 0-2.21-1.664-3.952-3.9-3.952s-3.9 1.729-3.9 3.952c0 2.21 1.664 3.939 3.9 3.939.702.001 1.625-.168 2.483-.844zm4.458-7.449v5.421c0 .819.039 1.352.364 1.872.507.819 1.456 1.001 2.015 1.001s1.508-.182 2.015-1.001c.325-.521.364-1.053.364-1.872v-5.421h.572v5.421c0 .949-.052 1.573-.494 2.223-.649.949-1.677 1.17-2.457 1.17s-1.807-.221-2.457-1.17c-.442-.649-.494-1.273-.494-2.223v-5.421h.572zm11.83.519H429.9v3.146h3.51v.52h-3.51v3.965h3.588v.521h-4.16v-8.671h4.16v.519z"/></g><path fill="none" d="M404.203 166.834c.997-1.371 8.195-5.932 8.195-5.932l4.058-4.005 7.645-12.506 7.519-19.611 10.039-13.441 3.108-21.396 12.271-9.326 3-.1" class="D E F"/><g class="B"><path d="M338.749 49.992l4.102-4.075.754.001-4.206 4.14 4.438 4.531-.779-.001-4.076-4.141-.233.221-.007 3.913-.572-.001.015-8.671.572.001-.008 4.082zm10.613-3.544l-3.588-.006-.005 3.146 3.51.006-.001.52-3.51-.006-.007 3.965 3.588.006-.001.52-4.16-.007.015-8.671 4.16.007-.001.52zm1.859 8.155l.015-8.762 7.268 7.631.013-7.527.572.001-.016 8.892-7.267-7.631-.013 7.397-.572-.001zm12.057-3.685l-2.839-4.971.65.001 2.488 4.385 2.556-4.376.65.001-2.934 4.961-.006 3.705-.572-.001.007-3.705zm8.398.873l-3.692-.006-1.162 2.845-.624-.001 3.668-8.925 3.587 8.938-.624-.001-1.153-2.85zm-.207-.521l-1.618-4.111-1.658 4.105 3.276.006z"/><use xlink:href="#D"/><path d="M14.906 53.417l2.392 7.358 3.133-7.826 2.938 7.826 2.717-7.358h.624l-3.341 8.997-2.938-7.878-3.224 7.878-2.925-8.997h.624z"/><use xlink:href="#B" x="-104.464" y="-344.335"/><path d="M35.277 62.088v-8.762l7.28 7.618v-7.527h.572v8.893l-7.28-7.619v7.397h-.572zm10.192 0v-8.671h1.716c.767 0 2.106.117 3.198 1.209.923.923 1.248 2.184 1.248 3.133s-.325 2.197-1.248 3.12c-1.092 1.092-2.431 1.209-3.198 1.209h-1.716zm.573-.52h1.131c2.288 0 3.861-1.56 3.861-3.809 0-2.223-1.586-3.822-3.861-3.822h-1.131v7.631z"/><use xlink:href="#B" x="-78.893" y="-344.335"/><path d="M10.931 301.782c-.871.741-1.365 1.807-1.365 2.925 0 2.224 1.781 3.888 3.978 3.888 2.574 0 3.913-2.146 3.913-3.9 0-.871-.351-2.028-1.313-2.912h.754c.78.884 1.079 1.95 1.079 2.886 0 2.601-2.041 4.524-4.459 4.524-2.496 0-4.473-2.002-4.473-4.498 0-1.651.884-2.652 1.131-2.912h.755z"/><use xlink:href="#E"/><path d="M17.834 289.785H9.072l7.618-7.28H9.163v-.572h8.893l-7.619 7.28h7.397v.572zm-4.16-14.718v-3.64c.793 0 1.937.169 2.847.884.975.767 1.456 1.937 1.456 3.263 0 2.549-1.872 4.485-4.459 4.485-2.574 0-4.473-2.002-4.473-4.524 0-1.222.416-2.041.937-2.717.286-.364.598-.689 1.092-1.04l.364.455c-.416.247-.767.598-.962.832-.455.546-.91 1.404-.91 2.483 0 2.223 1.768 3.913 3.978 3.913 2.171 0 3.913-1.639 3.913-3.874 0-1.482-.754-2.549-1.469-3.017a3.88 3.88 0 0 0-1.794-.572v3.068h-.52z"/><use xlink:href="#E" y="-30.627"/><path d="M8.776 100.803h1.898c1.508 0 2.392.871 2.392 2.171 0 .937-.442 1.547-1.014 1.898 1.131.182 1.794 1.053 1.794 2.171 0 1.521-1.118 2.431-2.691 2.431H8.776v-8.671zm.573 3.926h1.378c.442 0 .806-.052 1.183-.364.351-.286.572-.728.572-1.326 0-.689-.299-1.118-.585-1.352-.429-.338-.988-.364-1.443-.364H9.349v3.406zm0 4.225h1.456c.585 0 1.3 0 1.885-.52.468-.416.559-.923.559-1.326 0-.78-.273-1.313-.923-1.612-.234-.104-.663-.247-1.625-.247H9.349v3.705z"/><use xlink:href="#F"/><use xlink:href="#D" x="14.501" y="47.386"/><use xlink:href="#F" x="14.325"/><path d="M38.286 109.474v-8.762l7.28 7.618v-7.527h.572v8.893l-7.28-7.619v7.397h-.572zm10.192 0v-8.671h1.716c.767 0 2.106.117 3.198 1.209.923.923 1.248 2.184 1.248 3.133s-.325 2.197-1.248 3.12c-1.092 1.092-2.431 1.209-3.198 1.209h-1.716zm.572-.52h1.131c2.288 0 3.861-1.56 3.861-3.809 0-2.223-1.586-3.822-3.861-3.822H49.05v7.631zm8.034-8.151v8.671h-.572v-8.671h.572zm135.738 348.792l-8.97-.988 8.021-3.757-8.021-3.757 8.97-.988v.572l-6.968.767 7.28 3.406-7.28 3.406 6.968.767v.572z"/><use xlink:href="#G"/><path d="M184.151 429.795h8.151v-2.418h.52v2.99h-8.671v-.572z"/><use xlink:href="#G" y="-12.232"/><path d="M184.151 418.901l7.358-2.393-7.826-3.133 7.826-2.938-7.358-2.717v-.624l8.997 3.341-7.878 2.938 7.878 3.224-8.997 2.926v-.624zm0-13.728h8.671v.572h-8.671v-.572zM33.107 5.681v5.421c0 .819.039 1.352.364 1.872.507.819 1.456 1.001 2.015 1.001s1.508-.182 2.015-1.001c.325-.52.364-1.053.364-1.872V5.681h.572v5.421c0 .949-.052 1.573-.494 2.223-.65.949-1.677 1.17-2.457 1.17s-1.807-.221-2.457-1.17c-.442-.65-.494-1.274-.494-2.223V5.681h.572zm12.194 4.511h3.64c0 .793-.169 1.937-.884 2.847-.767.975-1.937 1.456-3.263 1.456-2.548 0-4.485-1.872-4.485-4.459 0-2.574 2.002-4.473 4.524-4.473 1.222 0 2.041.416 2.717.937.364.286.689.598 1.04 1.092l-.455.364c-.247-.416-.598-.767-.832-.962-.546-.455-1.404-.91-2.483-.91-2.223 0-3.913 1.768-3.913 3.978 0 2.171 1.638 3.913 3.874 3.913 1.482 0 2.548-.754 3.016-1.469a3.88 3.88 0 0 0 .572-1.794h-3.068v-.52z"/><use xlink:href="#H"/><path d="M58.158 14.352V5.59l7.28 7.618V5.681h.572v8.893l-7.28-7.619v7.397h-.572zm10.192 0V5.681h1.716c.767 0 2.106.117 3.198 1.209.923.923 1.248 2.184 1.248 3.133s-.325 2.197-1.248 3.12c-1.092 1.092-2.431 1.209-3.198 1.209H68.35zm.572-.52h1.131c2.288 0 3.861-1.56 3.861-3.809 0-2.223-1.586-3.822-3.861-3.822h-1.131v7.631z"/><use xlink:href="#H" x="25.571"/><path d="M270.33 214.034c1.115 0 2.087.12 2.975.779.971.732 1.535 1.895 1.535 3.227s-.552 2.482-1.607 3.226c-.936.66-1.812.768-2.927.768h-1.655v-8h1.679zm-.456 6.848h.528c.6 0 1.427-.048 2.122-.563.552-.42 1.092-1.188 1.092-2.279 0-1.056-.504-1.883-1.079-2.303-.696-.504-1.548-.552-2.135-.552h-.528v5.697z"/><use xlink:href="#I"/><path d="M286.217 213.291h1.176v8.743h-1.176v-.528c-.516.6-1.151.684-1.511.684-1.56 0-2.447-1.295-2.447-2.687 0-1.643 1.128-2.65 2.459-2.65.372 0 1.02.096 1.499.72v-4.282zm-2.759 6.236c0 .875.552 1.607 1.403 1.607.744 0 1.428-.54 1.428-1.595 0-1.104-.684-1.631-1.428-1.631-.851 0-1.403.719-1.403 1.619zm10.559-.012c0 1.547-1.176 2.674-2.698 2.674s-2.699-1.127-2.699-2.674c0-1.559 1.176-2.663 2.699-2.663s2.698 1.104 2.698 2.663zm-1.2.012c0-1.151-.756-1.619-1.499-1.619s-1.5.467-1.5 1.619c0 .972.576 1.607 1.5 1.607s1.499-.635 1.499-1.607zm2.426-2.543h1.176v.468c.396-.479.863-.6 1.247-.6.528 0 1.02.252 1.308.744.42-.6 1.056-.744 1.499-.744.611 0 1.151.288 1.439.792.096.168.264.54.264 1.271v3.118H301v-2.783c0-.563-.06-.792-.107-.899-.072-.192-.252-.443-.672-.443-.288 0-.539.156-.695.372-.204.288-.229.72-.229 1.151v2.603h-1.175v-2.783c0-.563-.06-.792-.108-.899-.071-.192-.252-.443-.671-.443-.288 0-.54.156-.696.372-.203.288-.228.72-.228 1.151v2.603h-1.176v-5.051zm12.118 0h1.176v5.049h-1.176v-.528c-.516.6-1.151.684-1.511.684-1.56 0-2.447-1.295-2.447-2.687 0-1.643 1.128-2.65 2.459-2.65.372 0 1.02.096 1.499.72v-.588zm-2.758 2.543c0 .875.552 1.607 1.403 1.607.744 0 1.428-.54 1.428-1.595 0-1.104-.684-1.631-1.428-1.631-.852 0-1.403.719-1.403 1.619zm141.844 102.955h8.671v.572h-8.671v-.572z"/><use xlink:href="#J"/><path d="M455.118 309.95h-8.671v-1.716c0-.768.116-2.106 1.209-3.198.923-.923 2.184-1.248 3.133-1.248s2.197.325 3.12 1.248c1.092 1.092 1.209 2.431 1.209 3.198v1.716zm-.52-.572v-1.131c0-2.288-1.56-3.861-3.809-3.861-2.223 0-3.822 1.586-3.822 3.861v1.131h7.631zm-8.151-8.034h8.671v.572h-8.671v-.572z"/><use xlink:href="#K"/><use xlink:href="#J" y="-28.757"/><path d="M450.802 269.636c2.496 0 4.459 1.963 4.459 4.498 0 2.548-1.963 4.498-4.459 4.498s-4.472-1.963-4.472-4.498 1.976-4.498 4.472-4.498zm0 .597c-2.223 0-3.952 1.664-3.952 3.9s1.729 3.9 3.952 3.9c2.21 0 3.939-1.664 3.939-3.9s-1.729-3.9-3.939-3.9zm-2.587-9.411c-.871.741-1.365 1.807-1.365 2.925 0 2.224 1.781 3.888 3.979 3.888 2.574 0 3.913-2.146 3.913-3.9 0-.871-.351-2.028-1.313-2.912h.754c.78.884 1.079 1.95 1.079 2.886 0 2.601-2.041 4.524-4.459 4.524-2.496 0-4.472-2.002-4.472-4.498 0-1.651.884-2.652 1.131-2.912h.753zm-1.248-6.031v3.588h3.146v-3.51h.52v3.51h3.965v-3.588h.521v4.16h-8.671v-4.16h.519z"/><use xlink:href="#K" y="-46.085"/><use xlink:href="#J" y="-74.842"/></g><g class="C"><path d="M133.019 29.167v6.848h2.351v1.151h-3.574v-8h1.223zm6.982 2.95h1.175v5.049h-1.175v-.528c-.516.6-1.151.684-1.511.684-1.559 0-2.446-1.295-2.446-2.687 0-1.643 1.127-2.65 2.458-2.65.372 0 1.02.096 1.499.72v-.588zm-2.758 2.542c0 .876.552 1.607 1.403 1.607.743 0 1.427-.54 1.427-1.595 0-1.104-.684-1.631-1.427-1.631-.851 0-1.403.72-1.403 1.619z"/><use xlink:href="#L"/><path d="M152.361 36.015c-.216.384-.528.72-.852.923-.408.264-.947.384-1.487.384-.671 0-1.223-.168-1.703-.647s-.744-1.175-.744-1.931c0-.779.276-1.535.804-2.075a2.3 2.3 0 0 1 1.691-.684c.803 0 1.319.348 1.619.66.648.671.708 1.607.708 2.135v.144h-3.622c.024.36.18.768.432 1.02.276.276.612.324.899.324.324 0 .564-.072.804-.252.204-.156.36-.36.468-.552l.983.551zm-1.164-2.051c-.048-.276-.18-.516-.359-.684-.156-.144-.408-.288-.792-.288a1.13 1.13 0 0 0-.827.324c-.168.156-.3.396-.36.648h2.338zm-18.994 4.203l2.231 5.577 2.23-5.577h1.319l-3.55 8.515-3.55-8.515h1.32z"/><use xlink:href="#M"/><path d="M145.353 42.664c-.54-.528-1.067-.624-1.427-.624-.552 0-.899.228-1.115.444s-.432.6-.432 1.164c0 .587.228.983.456 1.211.264.251.636.408 1.067.408.48 0 1.043-.192 1.451-.648v1.308c-.288.18-.755.396-1.535.396-.839 0-1.439-.24-1.919-.744-.36-.372-.72-.971-.72-1.895 0-.948.396-1.583.768-1.955.396-.396 1.032-.744 2.027-.744a2.71 2.71 0 0 1 1.379.36v1.319zm2.341-.468v3.97h-1.175v-3.97h-.492v-1.08h.492V39.27h1.175v1.847h.899v1.08h-.899zm6.826 1.451c0 1.547-1.175 2.674-2.699 2.674s-2.698-1.127-2.698-2.674c0-1.559 1.175-2.663 2.698-2.663s2.699 1.104 2.699 2.663zm-1.2.012c0-1.151-.755-1.619-1.499-1.619s-1.499.468-1.499 1.619c0 .972.576 1.607 1.499 1.607s1.499-.635 1.499-1.607z"/><use xlink:href="#N"/><use xlink:href="#M" x="20.951"/><path d="M166.088 41.117h1.175v5.049h-1.175v-.528c-.516.6-1.151.684-1.511.684-1.559 0-2.447-1.295-2.447-2.687 0-1.643 1.127-2.65 2.459-2.65.372 0 1.02.096 1.499.72v-.588zm-2.758 2.542c0 .876.552 1.607 1.403 1.607.743 0 1.427-.54 1.427-1.595 0-1.104-.684-1.631-1.427-1.631-.852 0-1.403.72-1.403 1.619zM32.647 243.797l-5.986 3.326 1.142 2.055-1.007.559-1.735-3.124 6.993-3.885.593 1.069zm.812 7.536l.571 1.028-4.414 2.452-.57-1.028.461-.256c-.774-.16-1.157-.675-1.332-.988-.757-1.363-.056-2.77 1.16-3.444 1.436-.798 2.865-.301 3.511.862.181.325.411.938.099 1.659l.514-.285zm-3.562-1.176c-.765.425-1.137 1.262-.723 2.007.361.65 1.165.986 2.088.474.964-.536 1.094-1.39.732-2.04-.414-.746-1.311-.878-2.097-.441zm8.658 2.74l-4.708 2.615 2.276.615.757 1.362-2.889-.878-1.449 3.467-.722-1.3 1.083-2.496-.294-.083-1.698.943-.571-1.027 7.644-4.246.571 1.028zm-2.501 11.134c-.44-.004-.885-.113-1.221-.297-.428-.228-.795-.642-1.057-1.112-.326-.588-.447-1.152-.261-1.804s.667-1.222 1.327-1.589c.681-.378 1.476-.503 2.204-.304.57.162 1.069.517 1.419 1.146.39.702.337 1.322.209 1.735-.272.893-1.062 1.398-1.523 1.654l-.126.07-1.759-3.166c-.303.195-.583.53-.682.872-.106.375.015.692.154.944.157.282.337.457.61.58.235.102.489.14.709.14l-.003 1.131zm1.228-2.013c.218-.175.364-.407.423-.646.05-.207.054-.497-.133-.832-.198-.356-.473-.507-.685-.566-.218-.071-.492-.069-.742 0l1.137 2.044zm6.906 4.923l-5.986 3.325-.594-1.07 5.986-3.325-.892-1.604 1.007-.56 2.376 4.277-1.006.56-.891-1.603zm1.3 6.044l.571 1.027-4.414 2.452-.57-1.027.461-.256c-.774-.16-1.157-.675-1.332-.989-.757-1.363-.056-2.769 1.16-3.443 1.436-.798 2.865-.302 3.511.862.181.325.411.937.099 1.659l.514-.285zm-3.563-1.176c-.765.425-1.137 1.263-.723 2.007.361.65 1.165.985 2.088.474.964-.536 1.094-1.391.732-2.041-.414-.745-1.311-.878-2.097-.44zm4.852 3.497l.571 1.027-.409.228c.737.166 1.048.652 1.188.904.454.817.238 1.39.125 1.632-.148.302-.395.575-1.076.953l-2.705 1.503-.571-1.027 2.453-1.362c1.122-.624.921-1.062.705-1.448-.257-.461-.581-.898-2.007-.106l-2.118 1.177-.57-1.027 4.414-2.454zm4.626 8.327l.571 1.028-4.057 2.254c-1.038.577-1.847.875-2.699.552-.387-.154-.885-.482-1.287-1.205-.286-.515-.445-1.099-.259-1.75.144-.506.519-1.042 1.012-1.412l.553.994c-.218.177-.431.46-.511.71-.066.202-.094.546.138.966.239.43.547.589.742.645.512.154.973-.102 1.298-.282l.576-.32c-.859-.14-1.211-.698-1.374-.992-.314-.566-.419-1.126-.212-1.789.198-.632.65-1.227 1.384-1.634.808-.449 1.532-.454 2.07-.299.695.188 1.144.627 1.441 1.161.245.44.372 1.015.13 1.643l.484-.27zm-2.19-1.35c-.387-.127-.9-.089-1.372.174-.44.244-.777.651-.867 1.058-.063.281-.032.635.143.949.181.325.433.556.834.661.494.124.918-.002 1.254-.188.493-.274.772-.635.878-1.037.112-.392.018-.709-.146-1.004-.157-.283-.375-.503-.724-.613zm5.279 6.91l.571 1.027-4.414 2.452-.571-1.027.461-.256a1.94 1.94 0 0 1-1.331-.989c-.757-1.363-.056-2.768 1.16-3.443 1.437-.798 2.865-.302 3.511.862.181.325.411.937.099 1.659l.514-.285zm-3.563-1.176c-.765.425-1.137 1.263-.723 2.007.361.65 1.165.986 2.088.474.964-.536 1.094-1.39.732-2.04-.414-.745-1.311-.879-2.097-.441zm4.852 3.497l.571 1.027-.409.228a1.74 1.74 0 0 1 1.188.904c.455.817.238 1.39.125 1.632-.148.302-.395.575-1.076.953l-2.705 1.503-.571-1.027 2.453-1.362c1.122-.624.921-1.061.705-1.447-.256-.463-.581-.899-2.007-.107l-2.117 1.177-.571-1.027 4.414-2.454zm-.168 8.466l2.674-3.955.688 1.236-1.88 2.691 3.29-.154.641 1.153-8.766.274-.641-1.153 3.994-.092zm6.38 2.715l-4.414 2.452-.571-1.027 4.414-2.452.571 1.027zm2.199-1.893a.755.755 0 1 1-1.321.733c-.209-.377-.084-.817.293-1.027a.74.74 0 0 1 1.028.294zm2.324 2.428l-4.707 2.615 2.276.615.757 1.363-2.889-.879-1.449 3.467-.723-1.3 1.084-2.495-.294-.084-1.698.943-.571-1.027 7.644-4.246.57 1.028zm.569 8.632l.571 1.028-4.414 2.452-.57-1.028.461-.256c-.774-.159-1.157-.674-1.331-.988-.758-1.363-.056-2.77 1.16-3.444 1.437-.798 2.864-.301 3.511.862.181.325.411.938.099 1.659l.513-.285zm-3.562-1.175c-.765.425-1.137 1.263-.723 2.007.361.65 1.165.986 2.088.474.964-.536 1.094-1.39.732-2.04-.414-.745-1.311-.879-2.097-.441z"/></g><path d="M422.705 176.422h2.559l2.928 1.828 1.826-.913v2.743 2.56 3.291 2.56 1.464l-1.826 3.501-1.83 3.449h-1.098-2.559v-3.449l2.559-2.404 1.098-4.387h-1.098l-2.559-1.831 2.559-3.292zm7.24 114.365l-.656.478-3.66 2.193-2.194 3.293-2.31 1.388-1.347.806 3.292 1.83h3.292l4.767-9.404zm-22.603-81.083l2.562 2.925v4.026 4.387l2.561 2.56v2.194 2.196l-.55.546 4.206-2.376v4.39l1.465 1.829 1.463 3.181-1.832 3.964-4.024-1.662-3.289-5.483-2.562-2.195v1.8l-2.922-1.8v-5.572-5.035l-1.463-3.292 2.925-2.194" fill="#b3a67f"/><path d="M211.318 388.271l-6.635 1.696.583 2.277-1.115.285-.885-3.462 7.75-1.981.302 1.185zm-1.129 7.496l.291 1.14-4.892 1.251-.292-1.14.511-.131c-.709-.351-.947-.945-1.036-1.293-.387-1.512.648-2.692 1.996-3.037 1.592-.407 2.848.437 3.177 1.726.092.36.159 1.012-.326 1.63l.571-.146zm-3.146-2.043c-.849.217-1.421.934-1.21 1.759.184.721.877 1.249 1.899.987 1.068-.273 1.411-1.065 1.227-1.786-.211-.827-1.045-1.183-1.916-.96zm7.677 4.85l-5.217 1.334 2.045 1.173.386 1.511-2.572-1.583-2.282 2.985-.369-1.441 1.682-2.139-.263-.155-1.882.481-.292-1.14 8.471-2.165.293 1.139zm-5.246 10.133c-.425-.114-.828-.332-1.105-.597-.356-.329-.606-.823-.739-1.345-.167-.65-.141-1.227.205-1.811s.954-1.012 1.687-1.199c.755-.192 1.556-.112 2.209.265a2.3 2.3 0 0 1 1.081 1.47c.199.778-.01 1.364-.238 1.731-.49.794-1.381 1.084-1.893 1.215l-.14.035-.897-3.51c-.342.114-.699.366-.881.672-.199.336-.163.673-.091.952.08.313.209.527.443.715a1.77 1.77 0 0 0 .65.316l-.291 1.091zm1.699-1.635c.255-.114.455-.302.573-.518.101-.187.178-.467.083-.839-.101-.395-.329-.609-.519-.722-.193-.123-.458-.191-.717-.188l.58 2.267zm-1.756 6.063l8.273-2.115-4.453 7.129 5.368-1.372.303 1.185-8.227 2.104 4.453-7.129-5.415 1.384-.302-1.186zm3.299 9.707l3.591-3.146.351 1.371-2.502 2.126 3.221.687.327 1.277-8.548-1.96-.327-1.278 3.887.923zm6.042 6.444l.292 1.139-4.893 1.251-.291-1.139.511-.131c-.708-.352-.947-.947-1.037-1.295-.386-1.512.648-2.691 1.997-3.036 1.592-.407 2.847.437 3.177 1.726.092.36.159 1.012-.326 1.631l.57-.146zm-3.147-2.043c-.849.217-1.421.933-1.21 1.758.185.721.877 1.249 1.899.987 1.069-.273 1.412-1.066 1.228-1.787-.211-.824-1.046-1.18-1.917-.958zm3.064 7.094c.156-.164.333-.444.24-.804-.042-.164-.129-.264-.217-.316-.073-.044-.178-.066-.282-.039-.128.032-.194.112-.237.234-.028.081-.034.157-.099.435l-.142.655c-.063.287-.128.564-.278.8a1.25 1.25 0 0 1-.814.593c-.441.112-.866.049-1.225-.145-.517-.277-.766-.721-.897-1.232-.08-.313-.135-.721.043-1.138.138-.331.415-.651.734-.855l.679.817c-.148.099-.33.257-.396.386-.052.087-.126.279-.058.547.044.175.15.345.281.423.116.069.286.101.425.065s.244-.112.333-.247c.103-.175.143-.357.177-.564l.091-.47c.048-.247.107-.547.246-.78.179-.318.422-.48.735-.561a1.57 1.57 0 0 1 1.149.141c.29.161.617.474.771 1.077.089.35.091.646-.024.972-.063.189-.192.459-.462.713l-.773-.707zm2.728 5.296l.291 1.139-4.892 1.251-.291-1.139.511-.131c-.709-.352-.947-.946-1.036-1.294-.386-1.512.648-2.692 1.996-3.037 1.593-.407 2.848.437 3.177 1.727.092.36.159 1.011-.326 1.631l.57-.147zm-3.146-2.043c-.849.217-1.421.933-1.21 1.758.184.721.877 1.249 1.899.987 1.069-.273 1.411-1.065 1.227-1.786-.211-.826-1.045-1.182-1.916-.959z" class="C"/><g class="B"><use xlink:href="#O"/><path d="M438.033 188.888c-.216.384-.527.72-.852.923-.407.264-.947.384-1.486.384-.672 0-1.224-.168-1.703-.647s-.744-1.175-.744-1.931c0-.779.276-1.535.804-2.075a2.3 2.3 0 0 1 1.691-.684c.804 0 1.319.348 1.619.66.647.671.707 1.607.707 2.135v.144h-3.622c.024.36.181.768.432 1.02.276.276.612.324.9.324.323 0 .563-.072.803-.252.204-.156.36-.36.468-.552l.983.551zm-1.163-2.051c-.048-.276-.18-.516-.359-.684-.156-.144-.408-.288-.792-.288a1.13 1.13 0 0 0-.827.324c-.168.156-.3.396-.36.648h2.338zm2.426-1.847h1.176v.468c.396-.479.863-.6 1.247-.6.528 0 1.02.252 1.308.744.42-.6 1.056-.744 1.499-.744.611 0 1.151.288 1.439.792.096.168.264.54.264 1.271v3.118h-1.176v-2.782c0-.564-.06-.792-.107-.9-.072-.192-.252-.444-.672-.444-.288 0-.539.156-.695.372-.204.288-.229.72-.229 1.151v2.603h-1.175v-2.782c0-.564-.06-.792-.108-.9-.071-.192-.252-.444-.671-.444-.288 0-.54.156-.696.372-.203.288-.228.72-.228 1.151v2.603h-1.176v-5.049zm9.6.588c.479-.624 1.127-.72 1.499-.72 1.331 0 2.459 1.007 2.459 2.65 0 1.392-.888 2.687-2.447 2.687a1.94 1.94 0 0 1-1.511-.684v.528h-1.176v-8.743h1.176v4.282zm-.073 1.966c0 1.055.684 1.595 1.428 1.595.852 0 1.403-.731 1.403-1.607 0-.899-.552-1.619-1.403-1.619-.744 0-1.428.528-1.428 1.631z"/><use xlink:href="#P"/><path d="M415.561 294.599l1.679-8.6 2.783 6.213 2.806-6.213 1.512 8.6h-1.247l-.816-4.821-2.326 5.193-2.303-5.205-.84 4.833h-1.248z"/><use xlink:href="#Q"/><path d="M433.368 290.629v3.97h-1.176v-3.97h-.408v-1.079h.408v-1.68c0-.479.012-.947.312-1.379.265-.372.78-.779 1.751-.779 1.164 0 1.571.503 1.751.779.3.479.313.899.313 1.379v.348h-1.176v-.216c0-.216.012-.516-.144-.779-.18-.3-.456-.384-.744-.384-.396 0-.623.168-.743.384-.06.096-.144.3-.144.779v1.548h1.271v1.079h-1.271zm2.95-1.079v5.049h-1.176v-5.049h1.176z"/><use xlink:href="#Q" x="12"/><path d="M414.013 224.464h3.838v1.151h-5.829l3.935-6.848h-3.286v-1.151h5.276l-3.934 6.848z"/><use xlink:href="#R"/><use xlink:href="#S"/><path d="M432.648 224.536h2.998v1.08h-5.313l3.274-3.97h-2.578v-1.08h4.869l-3.25 3.97z"/><use xlink:href="#T"/><path d="M440.58 221.154c.479-.624 1.127-.72 1.499-.72 1.331 0 2.459 1.007 2.459 2.65 0 1.392-.888 2.687-2.447 2.687a1.94 1.94 0 0 1-1.511-.684v.528h-1.176v-8.743h1.176v4.282zm-.072 1.967c0 1.056.684 1.595 1.428 1.595.852 0 1.403-.732 1.403-1.607 0-.899-.552-1.619-1.403-1.619-.745 0-1.428.527-1.428 1.631z"/><use xlink:href="#R" x="26.964"/><use xlink:href="#U"/></g><g class="C"><path d="M255.278 145.453v6.848h-1.224v-6.848h-1.835v-1.151h4.894v1.151h-1.835z"/><use xlink:href="#P" x="-196.581" y="-37.738"/><use xlink:href="#U" x="-188.266" y="-73.314"/><use xlink:href="#V"/><use xlink:href="#S" x="-151.21" y="-73.314"/><path d="M283.466 147.252h1.176v4.642c0 1.188-.132 2.039-.828 2.626-.323.264-.852.54-1.679.54-.588 0-1.176-.144-1.655-.624-.372-.372-.659-.959-.743-1.571h1.139c.048.276.192.6.372.792.144.156.432.348.911.348.492 0 .78-.192.924-.336.384-.372.384-.899.384-1.271v-.659c-.54.684-1.199.719-1.535.719-.647 0-1.188-.18-1.667-.684-.456-.479-.756-1.163-.756-2.003 0-.923.348-1.559.744-1.955.504-.516 1.104-.696 1.715-.696.504 0 1.067.168 1.499.684v-.552zm-2.243 1.259c-.3.276-.516.744-.516 1.283 0 .504.192.996.504 1.271.216.192.54.336.899.336.372 0 .696-.108.983-.408.348-.372.444-.804.444-1.188 0-.563-.18-.983-.479-1.271-.288-.288-.612-.36-.948-.36a1.22 1.22 0 0 0-.887.337z"/><use xlink:href="#T" x="-150.608" y="-73.314"/><use xlink:href="#U" x="-163.329" y="-73.314"/><path d="M296.929 151.15c-.216.384-.527.72-.851.923-.408.264-.948.384-1.487.384-.672 0-1.224-.168-1.703-.647s-.744-1.175-.744-1.931c0-.779.276-1.535.804-2.075a2.3 2.3 0 0 1 1.691-.684c.804 0 1.319.348 1.619.66.647.671.707 1.607.707 2.135v.144h-3.622c.024.36.181.768.433 1.02.275.276.611.324.899.324.323 0 .563-.072.803-.252.204-.156.36-.36.468-.552l.983.551zm-1.163-2.051c-.048-.276-.18-.516-.359-.684-.156-.144-.408-.288-.792-.288a1.13 1.13 0 0 0-.827.324c-.168.156-.3.396-.36.648h2.338zm5.437 3.202v-8.539l5.806 6.081v-5.541h1.223v8.491l-5.805-6.081v5.589h-1.224z"/><use xlink:href="#W"/><path d="M52.152 255.519l3.095-3.19h1.607l-3.61 3.622 3.634 4.378h-1.631l-2.854-3.55-.24.239v3.311H50.93v-8h1.223v3.19zm8.796-.24h1.175v5.049h-1.175v-.527c-.516.6-1.151.684-1.511.684-1.559 0-2.446-1.296-2.446-2.687 0-1.644 1.127-2.651 2.458-2.651.372 0 1.02.097 1.499.72v-.588zm-2.759 2.542c0 .876.552 1.607 1.403 1.607.743 0 1.427-.54 1.427-1.595 0-1.104-.684-1.632-1.427-1.632-.851.001-1.403.721-1.403 1.62zm6.636-1.463v3.97H63.65v-3.97h-.492v-1.079h.492v-1.848h1.175v1.848h.899v1.079h-.899zm5.386-1.079h1.175v5.049h-1.175v-.527c-.516.6-1.151.684-1.511.684-1.559 0-2.446-1.296-2.446-2.687 0-1.644 1.127-2.651 2.458-2.651.372 0 1.02.097 1.499.72v-.588zm-2.758 2.542c0 .876.552 1.607 1.403 1.607.743 0 1.427-.54 1.427-1.595 0-1.104-.684-1.632-1.427-1.632-.851.001-1.403.721-1.403 1.62zm6.072-2.542l1.295 2.878 1.295-2.878h1.319l-2.615 5.408-2.615-5.408h1.321zm5.316-2.842c.432 0 .756.324.756.756s-.324.755-.756.755-.755-.323-.755-.755.323-.756.755-.756zm.588 2.842v5.049h-1.175v-5.049h1.175zm4.5 5.049v-8.539l5.805 6.08v-5.541h1.224v8.492l-5.805-6.081v5.589h-1.224zm10.715-8c.492 0 1.175.049 1.751.433.671.443.995 1.211.995 1.942 0 .468-.12 1.188-.779 1.751-.636.54-1.367.624-1.955.624h-.552v3.25H92.88v-8h1.764zm-.54 3.622h.552c1.056 0 1.559-.516 1.559-1.259 0-.444-.18-1.235-1.571-1.235h-.54v2.494z"/><use xlink:href="#X"/><path d="M331.521 330.516l-2.158-4.257h1.415l1.439 2.95 1.463-2.95H335l-4.018 7.795h-1.319l1.858-3.538z"/><use xlink:href="#Y"/><use xlink:href="#Z"/><use xlink:href="#a"/><use xlink:href="#Z" x="9.396"/><use xlink:href="#a" x="9.397"/><use xlink:href="#X" x="41.988"/><use xlink:href="#b"/><path d="M322.426 342.431c-.384-.815-.624-1.571-.815-2.423-.252-1.127-.312-1.979-.312-3.059 0-1.115.071-2.003.335-3.178.192-.864.42-1.56.792-2.339l1.079.42a12.15 12.15 0 0 0-.72 2.171c-.191.863-.287 1.919-.287 2.926 0 1.308.144 2.231.275 2.831.156.671.432 1.522.731 2.23l-1.078.421zm6.215-8.348a1.28 1.28 0 0 0-.36-.504c-.252-.204-.516-.288-.863-.288-.744 0-1.128.444-1.128.96 0 .24.084.659.864.972l.803.323c1.476.6 1.884 1.439 1.884 2.351 0 1.523-1.08 2.567-2.579 2.567-.923 0-1.475-.349-1.883-.804-.432-.479-.624-1.008-.672-1.56l1.212-.264a1.73 1.73 0 0 0 .336 1.02c.228.288.563.479 1.043.479a1.28 1.28 0 0 0 1.319-1.343c0-.815-.624-1.151-1.151-1.367l-.768-.324c-.66-.275-1.631-.827-1.631-2.026 0-1.08.839-2.111 2.339-2.111.863 0 1.354.324 1.606.54.216.191.444.468.612.804l-.983.575z"/><use xlink:href="#Y" x="-4.537" y="9"/><path d="M338.121 331.564v8.743h-1.176v-8.743h1.176zm6.622 6.225c0 1.547-1.176 2.675-2.698 2.675s-2.699-1.128-2.699-2.675c0-1.56 1.176-2.662 2.699-2.662s2.698 1.102 2.698 2.662zm-1.199.012c0-1.151-.756-1.619-1.499-1.619s-1.5.468-1.5 1.619c0 .972.576 1.607 1.5 1.607s1.499-.636 1.499-1.607z"/><use xlink:href="#c"/><path d="M353.984 336.59c-.12-.192-.348-.432-.72-.432-.168 0-.287.06-.359.132-.061.06-.108.155-.108.264 0 .132.061.216.168.288.072.048.145.071.396.203l.6.301c.264.132.516.264.707.467.276.276.372.588.372.936 0 .456-.168.852-.443 1.151-.396.433-.888.564-1.416.564-.323 0-.731-.048-1.091-.324-.288-.216-.528-.563-.647-.924l.959-.455c.06.168.168.384.276.479.071.072.239.191.516.191.18 0 .371-.06.479-.167a.6.6 0 0 0 .168-.396c0-.144-.048-.264-.156-.384-.144-.144-.312-.228-.504-.312l-.432-.204c-.228-.107-.504-.239-.695-.432a1.1 1.1 0 0 1-.36-.852c0-.408.156-.804.42-1.079.229-.24.612-.479 1.235-.479.36 0 .647.071.936.264a1.73 1.73 0 0 1 .576.623l-.877.577zm9.263-.444h3.298v.061c0 1.367-.408 2.482-1.188 3.238-.827.804-1.811 1.02-2.723 1.02-1.163 0-1.99-.336-2.723-1.092-.779-.804-1.188-1.871-1.188-3.022 0-1.247.504-2.326 1.164-2.986.684-.695 1.774-1.199 3.01-1.199.72 0 1.464.156 2.087.504.66.372 1.067.84 1.296 1.199l-.972.684c-.24-.336-.6-.695-.983-.911-.444-.265-.924-.349-1.415-.349-1.044 0-1.716.433-2.111.828-.527.527-.852 1.379-.852 2.242 0 .804.3 1.607.828 2.171.552.588 1.235.804 2.003.804.695 0 1.271-.204 1.786-.707.444-.432.624-.899.672-1.355h-1.99v-1.13zm6.265-3.838c.972 0 1.595.12 2.11.468.876.588.948 1.535.948 1.884a2.19 2.19 0 0 1-1.775 2.23l2.495 3.418h-1.476l-2.291-3.274h-.216v3.274h-1.224v-8h1.429zm-.204 3.67h.384c.336 0 1.703-.035 1.703-1.307 0-1.128-1.067-1.235-1.667-1.235h-.42v2.542zm4.945 6.033a14.7 14.7 0 0 0 .731-2.23c.132-.6.275-1.523.275-2.831 0-1.007-.096-2.063-.287-2.926a12.15 12.15 0 0 0-.72-2.171l1.079-.42c.372.779.6 1.475.792 2.339.264 1.175.336 2.063.336 3.178 0 1.08-.061 1.932-.313 3.059-.191.852-.432 1.607-.815 2.423l-1.078-.421z"/></g><g class="B"><use xlink:href="#d"/><use xlink:href="#I" x="64.834" y="-96.043"/><use xlink:href="#e"/><use xlink:href="#f"/><use xlink:href="#T" x="-79.231" y="-99.625"/></g><g class="C"><use xlink:href="#g"/><path d="M301.165 272.567c.432 0 .756.324.756.756s-.324.755-.756.755-.755-.323-.755-.755.323-.756.755-.756zm.588 2.843v5.049h-1.176v-5.049h1.176zm2.664-3.694v5.385l1.644-1.69h1.559l-2.171 2.099 2.327 2.95h-1.487l-1.655-2.159-.216.216v1.943h-1.176v-8.743h1.175z"/><use xlink:href="#c" x="-37.557" y="-59.849"/><path d="M314.221 275.41h1.176v.468c.396-.48.863-.601 1.247-.601.528 0 1.02.252 1.308.744.42-.6 1.056-.744 1.499-.744.611 0 1.151.288 1.439.792.096.168.264.54.264 1.271v3.118h-1.176v-2.782c0-.563-.06-.792-.107-.899-.072-.192-.252-.444-.672-.444-.288 0-.54.156-.695.372-.204.288-.228.72-.228 1.151v2.603H317.1v-2.782c0-.563-.06-.792-.108-.899-.071-.192-.251-.444-.671-.444-.288 0-.54.156-.696.372-.203.288-.228.72-.228 1.151v2.603h-1.176v-5.05zm9.011-2.843c.432 0 .756.324.756.756s-.324.755-.756.755-.756-.323-.756-.755a.74.74 0 0 1 .756-.756zm.588 2.843v5.049h-1.176v-5.049h1.176zm4.5 5.049v-8.539l5.806 6.08v-5.541h1.223v8.492l-5.805-6.081v5.589h-1.224z"/><use xlink:href="#h"/><path d="M196.8 277.581c.972 0 1.595.12 2.111.468.875.588.947 1.535.947 1.884a2.19 2.19 0 0 1-1.775 2.23l2.495 3.418h-1.475l-2.291-3.274h-.216v3.274h-1.223v-8h1.427zm-.204 3.67h.384c.336 0 1.703-.035 1.703-1.307 0-1.128-1.067-1.235-1.667-1.235h-.42v2.542zm6.144-.719v2.89c0 .3.012.648.216.912.156.204.432.348.768.348s.612-.144.768-.348c.204-.264.216-.612.216-.912v-2.89h1.175v2.926c0 .647-.072 1.188-.54 1.655-.456.456-1.08.624-1.643.624-.516 0-1.139-.156-1.595-.624-.468-.468-.54-1.008-.54-1.655v-2.926h1.175zm8.327 0h1.175v5.049h-1.175v-.527c-.516.6-1.151.684-1.511.684-1.559 0-2.446-1.296-2.446-2.687 0-1.644 1.127-2.65 2.458-2.65.372 0 1.02.096 1.499.719v-.588zm-2.758 2.542c0 .876.552 1.607 1.403 1.607.743 0 1.427-.54 1.427-1.596 0-1.103-.684-1.631-1.427-1.631-.852.001-1.403.721-1.403 1.62zm5.424-6.236h1.175v4.126c.504-.516 1.056-.563 1.355-.563.923 0 1.343.479 1.487.684.312.455.324 1.043.324 1.402v3.095h-1.175v-2.986c0-.3 0-.624-.228-.876-.132-.144-.36-.264-.66-.264-.396 0-.708.192-.864.42-.168.24-.24.624-.24 1.271v2.435h-1.175v-8.744zm9.526 3.694h1.175v5.049h-1.175v-.527c-.516.6-1.151.684-1.511.684-1.559 0-2.447-1.296-2.447-2.687 0-1.644 1.127-2.65 2.459-2.65.372 0 1.02.096 1.499.719v-.588zm-2.759 2.542c0 .876.552 1.607 1.403 1.607.743 0 1.427-.54 1.427-1.596 0-1.103-.684-1.631-1.427-1.631-.851.001-1.403.721-1.403 1.62zm8.437 2.507v-8.539l5.805 6.08v-5.541h1.224v8.492l-5.805-6.081v5.589h-1.224z"/><use xlink:href="#h" x="-99.385" y="5.122"/></g><g class="B"><path d="M138.265 334.06l1.679-8.6 2.783 6.213 2.807-6.213 1.511 8.6h-1.248l-.815-4.821-2.327 5.193-2.303-5.205-.84 4.833h-1.247zm11.423-4.462c.479-.623 1.127-.719 1.499-.719 1.332 0 2.459 1.007 2.459 2.65 0 1.391-.888 2.687-2.447 2.687-.36 0-.996-.084-1.511-.684v.527h-1.175v-8.743h1.175v4.282zm-.072 1.966c0 1.056.684 1.596 1.427 1.596.852 0 1.403-.731 1.403-1.607 0-.899-.551-1.619-1.403-1.619-.744 0-1.427.528-1.427 1.63zm9.778 1.344a2.65 2.65 0 0 1-.852.924c-.408.264-.947.384-1.487.384-.671 0-1.223-.168-1.703-.648s-.743-1.175-.743-1.931c0-.779.275-1.535.803-2.074a2.3 2.3 0 0 1 1.691-.684c.804 0 1.319.348 1.619.659.648.672.708 1.607.708 2.135v.144h-3.622c.024.36.18.768.432 1.02.276.276.612.324.899.324.324 0 .564-.072.804-.252.204-.156.36-.359.468-.552l.983.551zm-1.164-2.051c-.048-.276-.18-.516-.36-.684-.156-.145-.408-.288-.792-.288a1.13 1.13 0 0 0-.827.324c-.168.155-.3.396-.36.647h2.339zm3.913 2.411l-2.159-4.257h1.416l1.439 2.95 1.463-2.95h1.319l-4.018 7.795h-1.319l1.859-3.538zm7.739-4.257h1.175v5.049h-1.175v-.527c-.516.6-1.151.684-1.511.684-1.559 0-2.447-1.296-2.447-2.687 0-1.644 1.127-2.65 2.459-2.65.372 0 1.02.096 1.499.719v-.588zm-2.758 2.542c0 .876.552 1.607 1.403 1.607.743 0 1.427-.54 1.427-1.596 0-1.103-.684-1.631-1.427-1.631-.852.001-1.403.72-1.403 1.62zm201.491-158.892v6.848h-1.224v-6.848h-1.835v-1.151h4.894v1.151h-1.835z"/><use xlink:href="#R" x="-47.965" y="-46.106"/><use xlink:href="#S" x="-47.964" y="-46.106"/><path d="M386.71 174.46h1.176v4.642c0 1.188-.132 2.039-.828 2.626-.323.264-.852.54-1.679.54-.588 0-1.176-.144-1.655-.624-.372-.372-.659-.959-.743-1.571h1.139c.048.276.192.6.372.792.144.156.432.348.911.348.492 0 .78-.192.924-.336.384-.372.384-.899.384-1.271v-.66c-.54.684-1.199.719-1.535.719-.647 0-1.188-.18-1.667-.684-.456-.479-.756-1.163-.756-2.003 0-.923.348-1.559.744-1.955.504-.516 1.104-.696 1.715-.696.504 0 1.067.168 1.499.684v-.551zm-2.243 1.259c-.3.276-.516.744-.516 1.283 0 .504.192.996.504 1.271.216.192.54.336.899.336.372 0 .696-.108.983-.408.348-.372.444-.804.444-1.188 0-.563-.18-.983-.479-1.271-.288-.288-.612-.359-.948-.359-.323.001-.623.084-.887.336zm8.603-1.259h1.176v5.049h-1.176v-.528c-.516.6-1.151.684-1.511.684-1.56 0-2.447-1.295-2.447-2.687 0-1.643 1.128-2.65 2.459-2.65.372 0 1.02.096 1.499.72v-.588zm-2.758 2.542c0 .875.552 1.607 1.403 1.607.744 0 1.428-.54 1.428-1.595 0-1.104-.684-1.631-1.428-1.631-.852.001-1.403.72-1.403 1.619zM128.689 78.328l1.679-8.599 2.783 6.212 2.807-6.212 1.511 8.599h-1.248l-.815-4.821-2.327 5.193-2.303-5.205-.84 4.833h-1.247zm10.775-5.05l1.308 2.891 1.415-3.322 1.415 3.322 1.308-2.891h1.319l-2.626 5.409-1.415-3.226-1.415 3.226-2.627-5.409h1.318zm11.039 0h1.175v5.049h-1.175V77.8c-.516.6-1.151.684-1.511.684-1.559 0-2.447-1.295-2.447-2.687 0-1.643 1.127-2.65 2.459-2.65.372 0 1.02.096 1.499.72v-.589zm-2.758 2.543c0 .875.552 1.607 1.403 1.607.743 0 1.427-.54 1.427-1.595 0-1.104-.684-1.631-1.427-1.631-.852 0-1.403.719-1.403 1.619zm5.412-2.543h1.175v.468c.504-.563 1.08-.6 1.368-.6.935 0 1.331.468 1.487.684.192.276.312.624.312 1.403v3.094h-1.175V75.52c0-1.283-.48-1.319-.924-1.319-.527 0-1.067.072-1.067 1.703v2.423h-1.175v-5.049zm7.499 3.97h2.999v1.08h-5.313l3.274-3.97h-2.579v-1.08h4.87l-3.251 3.97zm7.607-3.97h1.175v5.049h-1.175V77.8c-.516.6-1.151.684-1.511.684-1.559 0-2.447-1.295-2.447-2.687 0-1.643 1.127-2.65 2.459-2.65.372 0 1.02.096 1.499.72v-.589zm-2.759 2.543c0 .875.552 1.607 1.403 1.607.743 0 1.427-.54 1.427-1.595 0-1.104-.684-1.631-1.427-1.631-.851 0-1.403.719-1.403 1.619zm68.482 214.087v8h-1.223v-8h1.223z"/><use xlink:href="#i"/><path d="M240.262 290.017c.432 0 .756.324.756.756s-.324.755-.756.755-.756-.323-.756-.755.324-.756.756-.756zm.588 2.842v5.049h-1.176v-5.049h1.176z"/><use xlink:href="#j"/><path d="M251.852 292.859h1.176v4.641c0 1.188-.132 2.039-.828 2.627-.323.264-.852.54-1.679.54-.588 0-1.176-.145-1.655-.624-.372-.372-.659-.959-.743-1.571h1.139c.048.276.192.6.372.792.144.155.432.348.911.348.492 0 .78-.192.924-.336.384-.372.384-.899.384-1.271v-.659c-.54.684-1.199.72-1.535.72-.647 0-1.188-.181-1.667-.684-.456-.48-.756-1.164-.756-2.003 0-.924.348-1.56.744-1.955.503-.516 1.104-.696 1.715-.696.504 0 1.067.168 1.499.685v-.554zm-2.244 1.259c-.3.276-.516.744-.516 1.283 0 .504.192.996.504 1.271.216.192.54.336.899.336.372 0 .696-.108.983-.408.349-.371.444-.804.444-1.187 0-.564-.18-.984-.48-1.271-.287-.288-.611-.36-.947-.36-.322 0-.622.084-.887.336z"/><use xlink:href="#k"/><path d="M28.159 179.949l3.095-3.19h1.607l-3.61 3.622 3.634 4.377h-1.631l-2.854-3.55-.24.24v3.31h-1.223v-8h1.223v3.191zm6.181-3.082c.432 0 .756.324.756.755a.74.74 0 0 1-.756.756c-.432 0-.755-.324-.755-.756s.323-.755.755-.755zm.588 2.842v5.049h-1.175v-5.049h1.175zm5.182 0h1.175v4.642c0 1.188-.132 2.039-.828 2.626-.324.264-.852.54-1.679.54-.588 0-1.175-.144-1.655-.624-.372-.372-.66-.959-.744-1.571h1.14c.048.276.192.6.372.792.144.156.432.348.912.348.492 0 .779-.192.923-.336.384-.372.384-.899.384-1.271v-.66c-.54.684-1.199.719-1.535.719-.647 0-1.188-.18-1.667-.684-.456-.479-.756-1.163-.756-2.003 0-.923.348-1.559.744-1.955.504-.516 1.104-.696 1.715-.696.503 0 1.067.168 1.499.684v-.551zm-2.242 1.259c-.3.276-.516.744-.516 1.283 0 .504.192.996.503 1.271.216.192.54.336.9.336.372 0 .695-.108.983-.408.348-.372.444-.804.444-1.188 0-.563-.18-.983-.48-1.271-.288-.288-.612-.359-.947-.359-.324.001-.624.084-.887.336zm10.042 1.272c0 1.547-1.175 2.674-2.699 2.674s-2.698-1.127-2.698-2.674c0-1.559 1.175-2.663 2.698-2.663s2.699 1.104 2.699 2.663zm-1.2.011c0-1.151-.755-1.619-1.499-1.619s-1.499.467-1.499 1.619c0 .972.576 1.607 1.499 1.607s1.499-.635 1.499-1.607zm2.426-2.542h1.175v.468c.396-.479.863-.6 1.247-.6.528 0 1.02.252 1.308.744.42-.6 1.055-.744 1.499-.744.612 0 1.151.288 1.439.792.096.168.264.54.264 1.271v3.118h-1.175v-2.783c0-.563-.06-.792-.108-.899-.072-.192-.252-.443-.672-.443-.288 0-.54.156-.695.372-.204.288-.228.72-.228 1.151v2.603h-1.175v-2.783c0-.563-.06-.792-.108-.899-.072-.192-.252-.443-.672-.443-.288 0-.54.156-.695.372-.204.288-.228.72-.228 1.151v2.603h-1.175v-5.051zm12.118 0h1.175v5.049h-1.175v-.528c-.516.6-1.151.684-1.511.684-1.559 0-2.447-1.295-2.447-2.687 0-1.643 1.127-2.65 2.459-2.65.372 0 1.02.096 1.499.72v-.588zm-2.758 2.542c0 .875.552 1.607 1.403 1.607.743 0 1.427-.54 1.427-1.595 0-1.104-.684-1.631-1.427-1.631-.852.001-1.403.72-1.403 1.619z"/><circle cx="300.966" cy="114.955" r="3.231"/><circle cx="149.841" cy="82.982" r="3.231"/><circle cx="22.125" cy="177.581" r="3.231"/><circle cx="175.072" cy="337.145" r="3.231"/><circle cx="264.235" cy="291.829" r="3.231"/><circle cx="265.851" cy="224.886" r="3.231"/><circle cx="397.938" cy="180.811" r="3.231"/><circle cx="329.029" cy="114.955" r="3.231"/><circle cx="404.401" cy="251.502" r="3.231"/><path d="M274.896 123.308h-3.418l-.876 1.931h-1.319l3.982-8.467 3.789 8.467h-1.319l-.839-1.931zm-.492-1.152l-1.188-2.71-1.235 2.71h2.423z"/><use xlink:href="#U" x="-174.274" y="-100.377"/><path d="M282.89 120.189v2.891c0 .3.012.647.216.911.156.204.432.348.768.348s.611-.144.768-.348c.204-.264.216-.611.216-.911v-2.891h1.176v2.926c0 .648-.072 1.188-.54 1.655-.456.456-1.079.624-1.643.624-.517 0-1.14-.156-1.596-.624-.468-.468-.54-1.007-.54-1.655v-2.926h1.175z"/><use xlink:href="#e" x="-59.834" y="-0.752"/><use xlink:href="#f" x="-59.835" y="-0.752"/><path d="M301.368 120.189h1.176v5.049h-1.176v-.528c-.516.6-1.151.684-1.511.684-1.56 0-2.447-1.295-2.447-2.687 0-1.643 1.128-2.65 2.459-2.65.372 0 1.02.096 1.499.72v-.588zm-2.759 2.543c0 .875.552 1.607 1.403 1.607.744 0 1.428-.54 1.428-1.595 0-1.104-.684-1.631-1.428-1.631-.851 0-1.403.72-1.403 1.619zm34.554 119.002c1.115 0 2.087.12 2.975.78.971.731 1.535 1.895 1.535 3.226s-.552 2.483-1.607 3.227c-.936.659-1.812.768-2.927.768h-1.654v-8h1.678zm-.456 6.849h.528c.6 0 1.427-.048 2.122-.563.552-.42 1.092-1.188 1.092-2.279 0-1.055-.504-1.883-1.079-2.303-.696-.503-1.548-.552-2.135-.552h-.528v5.697z"/><use xlink:href="#l"/><use xlink:href="#i" x="109.665" y="-48.173"/><path d="M356.656 248.583a2.64 2.64 0 0 1-.852.924c-.407.264-.947.384-1.486.384-.672 0-1.224-.168-1.703-.648s-.744-1.175-.744-1.931c0-.779.276-1.535.804-2.074a2.3 2.3 0 0 1 1.691-.685c.804 0 1.319.349 1.619.66.647.672.707 1.607.707 2.135v.144h-3.622c.024.36.181.768.432 1.02.276.276.612.324.9.324.323 0 .563-.072.803-.252.204-.156.36-.359.468-.552l.983.551zm-1.163-2.051c-.048-.276-.18-.516-.359-.684-.156-.144-.408-.288-.792-.288a1.13 1.13 0 0 0-.827.324c-.168.155-.3.396-.36.647h2.338z"/><use xlink:href="#m"/><path d="M368.705 243.51a1.27 1.27 0 0 0-.359-.504c-.252-.204-.516-.288-.863-.288-.744 0-1.128.444-1.128.96 0 .24.084.659.864.972l.803.323c1.476.6 1.884 1.439 1.884 2.351 0 1.523-1.08 2.567-2.579 2.567-.924 0-1.475-.348-1.883-.804-.432-.479-.624-1.008-.672-1.56l1.212-.264a1.73 1.73 0 0 0 .336 1.02c.228.288.563.479 1.043.479a1.28 1.28 0 0 0 1.319-1.343c0-.815-.624-1.151-1.151-1.367l-.768-.324c-.66-.275-1.631-.827-1.631-2.026 0-1.08.839-2.111 2.339-2.111.863 0 1.354.324 1.606.54.216.191.444.468.612.804l-.984.575z"/><use xlink:href="#n"/><path d="M378.764 240.991v8.743h-1.176v-8.743h1.176z"/><use xlink:href="#l" x="41.257"/><use xlink:href="#n" x="15.385"/><path d="M392.973 244.686h1.176v.468c.396-.48.863-.601 1.247-.601.528 0 1.02.252 1.308.744.42-.6 1.056-.744 1.499-.744.611 0 1.151.288 1.439.792.096.168.264.54.264 1.271v3.118h-1.176v-2.782c0-.563-.06-.792-.107-.899-.072-.192-.252-.444-.672-.444-.288 0-.54.156-.695.372-.204.288-.228.72-.228 1.151v2.603h-1.176v-2.782c0-.563-.06-.792-.108-.899-.071-.192-.251-.444-.671-.444-.288 0-.54.156-.696.372-.203.288-.228.72-.228 1.151v2.603h-1.176v-5.05z"/></g><g class="C"><use xlink:href="#d" x="-54.039" y="-36.625"/><path d="M288.169 85.396v3.97h-1.176v-3.97h-.491v-1.08h.491V82.47h1.176v1.847h.899v1.08h-.899zm2.46 2.675a.72.72 0 0 1 0 1.44.72.72 0 0 1 0-1.44zm-12.456 5.486l3.095-3.19h1.606l-3.609 3.622 3.634 4.377h-1.631l-2.854-3.55-.24.24v3.31h-1.224v-8h1.224v3.191zm6.181-3.082c.432 0 .756.324.756.755a.74.74 0 0 1-.756.756c-.432 0-.756-.324-.756-.756s.324-.755.756-.755zm.587 2.842v5.049h-1.176v-5.049h1.176zm2.664-3.694v8.743h-1.176v-8.743h1.176zm2.077.852c.432 0 .756.324.756.755a.74.74 0 0 1-.756.756c-.432 0-.756-.324-.756-.756s.324-.755.756-.755zm.588 2.842v5.049h-1.176v-5.049h1.176z"/><use xlink:href="#o"/><use xlink:href="#V" x="32.591" y="-53.935"/><path d="M306.53 93.317h1.176v.468a1.74 1.74 0 0 1 1.367-.6c.936 0 1.331.468 1.487.684.191.276.312.624.312 1.403v3.094h-1.176V95.56c0-1.283-.479-1.319-.923-1.319-.528 0-1.067.072-1.067 1.703v2.423h-1.176v-5.05zm6.42-2.842c.432 0 .756.324.756.755a.74.74 0 0 1-.756.756c-.432 0-.755-.324-.755-.756s.324-.755.755-.755zm.588 2.842v7.796h-1.176v-7.796h1.176z"/><use xlink:href="#V" x="47.436" y="-53.935"/><use xlink:href="#U" x="-130.738" y="-127.249"/><path d="M330.264 95.848c0 1.547-1.176 2.674-2.698 2.674s-2.699-1.127-2.699-2.674c0-1.559 1.176-2.663 2.699-2.663s2.698 1.104 2.698 2.663zm-1.2.011c0-1.151-.756-1.619-1.499-1.619s-1.5.468-1.5 1.619c0 .972.576 1.607 1.5 1.607s1.499-.635 1.499-1.607zm-52.747 11.14h-3.418l-.876 1.931h-1.319l3.981-8.467 3.79 8.467h-1.319l-.839-1.931zm-.492-1.151l-1.188-2.71-1.235 2.71h2.423z"/><use xlink:href="#U" x="-172.854" y="-116.685"/><path d="M284.311 103.881v2.891c0 .3.012.647.216.911.156.204.432.348.768.348s.611-.144.768-.348c.204-.264.216-.611.216-.911v-2.891h1.176v2.926c0 .648-.072 1.188-.54 1.655-.456.456-1.079.624-1.644.624-.516 0-1.139-.156-1.595-.624-.468-.468-.54-1.007-.54-1.655v-2.926h1.175z"/><use xlink:href="#e" x="-58.414" y="-17.061"/><use xlink:href="#f" x="-58.415" y="-17.061"/><use xlink:href="#R" x="-119.707" y="-116.685"/><path d="M308.467 108.93v-8.54l5.805 6.081v-5.541h1.223v8.491l-5.805-6.081v5.589h-1.223z"/><use xlink:href="#O" x="-110.67" y="-81.109"/><path d="M31.186 165.005h3.298v.06c0 1.367-.408 2.482-1.188 3.238-.828.803-1.811 1.019-2.723 1.019-1.163 0-1.991-.335-2.722-1.091-.78-.804-1.188-1.871-1.188-3.022 0-1.247.504-2.327 1.164-2.986.684-.695 1.775-1.199 3.01-1.199.72 0 1.463.156 2.087.504.66.372 1.067.839 1.295 1.199l-.971.684c-.24-.336-.6-.696-.983-.912-.444-.264-.924-.348-1.416-.348-1.043 0-1.715.432-2.111.828-.527.527-.852 1.379-.852 2.243 0 .804.3 1.607.828 2.171.552.587 1.235.803 2.003.803a2.4 2.4 0 0 0 1.787-.708c.444-.432.624-.899.671-1.355h-1.991v-1.128zm9.755 1.643c0 1.547-1.176 2.674-2.699 2.674s-2.699-1.127-2.699-2.674c0-1.559 1.176-2.663 2.699-2.663s2.699 1.104 2.699 2.663zm-1.199.012c0-1.151-.755-1.619-1.499-1.619s-1.499.468-1.499 1.619c0 .972.576 1.607 1.499 1.607s1.499-.635 1.499-1.607zm2.426-2.542h1.175v.468c.396-.479.864-.6 1.248-.6.527 0 1.019.252 1.307.744.419-.6 1.055-.744 1.499-.744.612 0 1.151.288 1.439.792.096.168.264.54.264 1.271v3.118h-1.175v-2.782c0-.564-.06-.792-.108-.9-.072-.192-.252-.444-.672-.444-.288 0-.54.156-.695.372-.204.288-.228.72-.228 1.151v2.603h-1.175v-2.782c0-.564-.06-.792-.108-.9-.072-.192-.252-.444-.672-.444-.288 0-.54.156-.695.372-.204.288-.228.72-.228 1.151v2.603h-1.175v-5.049zm9.599.588c.48-.624 1.127-.72 1.499-.72 1.332 0 2.459 1.007 2.459 2.65 0 1.392-.888 2.687-2.447 2.687-.36 0-.996-.084-1.511-.684v.528h-1.175v-8.743h1.175v4.282zm-.072 1.966c0 1.055.684 1.595 1.427 1.595.851 0 1.403-.731 1.403-1.607 0-.899-.552-1.619-1.403-1.619-.743 0-1.427.528-1.427 1.631z"/><use xlink:href="#p"/><path d="M69.202 162.942a1.27 1.27 0 0 0-.36-.504c-.252-.204-.516-.288-.863-.288-.744 0-1.127.444-1.127.959 0 .24.084.66.863.972l.804.324c1.475.6 1.883 1.439 1.883 2.351 0 1.523-1.079 2.566-2.579 2.566-.923 0-1.475-.348-1.883-.803a2.59 2.59 0 0 1-.672-1.56l1.211-.264a1.73 1.73 0 0 0 .336 1.02 1.26 1.26 0 0 0 1.043.479c.744 0 1.319-.54 1.319-1.343 0-.815-.624-1.151-1.151-1.367l-.768-.324c-.66-.276-1.631-.828-1.631-2.027 0-1.08.84-2.111 2.339-2.111.864 0 1.355.324 1.607.54.216.192.444.468.612.804l-.983.576zm3.733 2.255v3.97H71.76v-3.97h-.492v-1.08h.492v-1.847h1.175v1.847h.899v1.08h-.899z"/><use xlink:href="#N" x="-81.12" y="123.001"/><path d="M82.761 168.016c-.216.384-.528.72-.852.923-.408.264-.947.384-1.487.384-.671 0-1.223-.168-1.703-.647s-.743-1.175-.743-1.931c0-.779.275-1.535.803-2.075a2.3 2.3 0 0 1 1.691-.684c.804 0 1.319.348 1.619.66.648.671.708 1.607.708 2.135v.144h-3.622c.024.36.18.768.432 1.02.276.276.612.324.899.324.324 0 .564-.072.804-.252.204-.156.36-.36.468-.552l.983.551zm-1.164-2.051c-.048-.276-.18-.516-.36-.684-.156-.144-.408-.288-.792-.288a1.13 1.13 0 0 0-.827.324c-.168.156-.3.396-.36.648h2.339zm6.12-1.847h1.175v5.049h-1.175v-.528c-.516.6-1.151.684-1.511.684-1.559 0-2.447-1.295-2.447-2.687 0-1.643 1.127-2.65 2.459-2.65.372 0 1.02.096 1.499.72v-.588zm-2.759 2.542c0 .876.552 1.607 1.403 1.607.743 0 1.427-.54 1.427-1.595 0-1.104-.684-1.631-1.427-1.631-.851 0-1.403.72-1.403 1.619zm5.425-2.542h1.175v.468c.396-.479.864-.6 1.248-.6.527 0 1.019.252 1.307.744.419-.6 1.055-.744 1.499-.744.612 0 1.151.288 1.439.792.096.168.264.54.264 1.271v3.118H96.14v-2.782c0-.564-.06-.792-.108-.9-.072-.192-.252-.444-.672-.444-.288 0-.54.156-.695.372-.204.288-.228.72-.228 1.151v2.603h-1.175v-2.782c0-.564-.06-.792-.108-.9-.072-.192-.252-.444-.672-.444-.288 0-.54.156-.695.372-.204.288-.228.72-.228 1.151v2.603h-1.175v-5.049zm11.435 5.049v-8.539l5.805 6.081v-5.541h1.224v8.491l-5.805-6.081v5.589h-1.224zm10.715-8c.492 0 1.175.048 1.751.432.671.444.995 1.211.995 1.943 0 .468-.12 1.188-.779 1.751-.636.54-1.367.624-1.955.624h-.552v3.25h-1.223v-8h1.763zm-.54 3.623h.552c1.056 0 1.559-.516 1.559-1.259 0-.444-.18-1.235-1.571-1.235h-.54v2.494zm-100.13 73.095l1.679-8.599 2.782 6.212 2.807-6.212 1.511 8.599h-1.247l-.815-4.82-2.327 5.192-2.303-5.205-.84 4.833h-1.247z"/><use xlink:href="#q"/><path d="M28.471 229.142h1.175v4.125a1.81 1.81 0 0 1 1.355-.563c.923 0 1.343.479 1.487.684.312.456.324 1.044.324 1.403v3.094h-1.176v-2.986c0-.299 0-.623-.228-.875-.132-.145-.36-.264-.66-.264-.396 0-.708.191-.864.42-.168.239-.24.623-.24 1.271v2.434h-1.175v-8.743zm9.526 3.694h1.175v5.049h-1.175v-.527c-.516.6-1.151.684-1.511.684-1.559 0-2.446-1.295-2.446-2.687 0-1.644 1.127-2.65 2.458-2.65.372 0 1.02.096 1.499.72v-.589zm-2.758 2.543c0 .875.552 1.607 1.403 1.607.743 0 1.427-.54 1.427-1.596 0-1.104-.684-1.631-1.427-1.631-.851.001-1.403.72-1.403 1.62zm6.599-6.237v8.743h-1.175v-8.743h1.175zm6.011 7.592c-.216.383-.528.719-.852.923-.408.265-.947.384-1.487.384-.671 0-1.223-.168-1.703-.647s-.744-1.175-.744-1.931c0-.779.276-1.535.804-2.075a2.3 2.3 0 0 1 1.691-.684c.803 0 1.319.348 1.619.659.648.672.708 1.607.708 2.135v.145h-3.622c.024.359.18.768.432 1.02.276.275.612.324.899.324.324 0 .564-.072.804-.252.204-.156.36-.36.468-.553l.983.552zm-1.164-2.05c-.048-.276-.18-.516-.359-.684-.156-.145-.408-.289-.792-.289a1.13 1.13 0 0 0-.827.324c-.168.156-.3.396-.36.648h2.338zm5.198 3.201l1.679-8.599 2.783 6.212 2.807-6.212 1.511 8.599h-1.248l-.815-4.82-2.327 5.192-2.303-5.205-.84 4.833h-1.247zm15.381-2.518c0 1.547-1.176 2.674-2.699 2.674s-2.699-1.127-2.699-2.674c0-1.56 1.176-2.663 2.699-2.663s2.699 1.104 2.699 2.663zm-1.2.012c0-1.152-.755-1.619-1.499-1.619s-1.499.467-1.499 1.619c0 .971.576 1.607 1.499 1.607s1.499-.636 1.499-1.607zm3.602-2.543v2.891c0 .3.012.647.216.911.156.204.432.349.768.349s.612-.145.768-.349c.204-.264.216-.611.216-.911v-2.891h1.175v2.926c0 .648-.072 1.188-.54 1.656-.456.455-1.08.623-1.643.623-.516 0-1.139-.156-1.595-.623-.468-.469-.54-1.008-.54-1.656v-2.926h1.175zm4.621 0h1.175v.468c.504-.563 1.08-.6 1.368-.6.935 0 1.331.468 1.487.684.192.276.312.624.312 1.403v3.094h-1.175v-2.807c0-1.283-.48-1.318-.923-1.318-.528 0-1.068.072-1.068 1.703v2.422h-1.175v-5.049zm7.043 1.08v3.969h-1.175v-3.969h-.492v-1.08h.492v-1.847h1.175v1.847h.899v1.08h-.899z"/><use xlink:href="#q" x="60.911"/><path d="M89.97 229.994c.432 0 .756.324.756.755a.74.74 0 0 1-.756.756c-.432 0-.755-.323-.755-.756s.323-.755.755-.755zm.588 2.842v5.049h-1.175v-5.049h1.175zm1.476 0h1.175v.468c.504-.563 1.08-.6 1.368-.6.935 0 1.331.468 1.487.684.192.276.312.624.312 1.403v3.094H95.2v-2.807c0-1.283-.48-1.318-.923-1.318-.528 0-1.068.072-1.068 1.703v2.422h-1.175v-5.049zm8.038 1.332c-.12-.192-.348-.433-.719-.433-.168 0-.288.06-.36.132-.06.061-.108.156-.108.264a.32.32 0 0 0 .168.288c.072.048.144.072.396.204l.6.3c.264.132.516.264.708.468.276.275.372.588.372.936 0 .455-.168.852-.444 1.151-.396.432-.888.563-1.415.563-.324 0-.732-.048-1.092-.324a1.96 1.96 0 0 1-.647-.923l.959-.456c.06.168.168.384.276.48.072.071.24.191.516.191.18 0 .372-.061.48-.168.096-.096.168-.252.168-.396s-.048-.265-.156-.384c-.144-.145-.312-.229-.503-.313l-.432-.203c-.228-.108-.503-.24-.695-.432a1.1 1.1 0 0 1-.36-.852c0-.408.156-.805.42-1.08.228-.24.611-.479 1.235-.479.359 0 .647.071.935.264.168.108.396.3.576.624l-.878.578zm5.125 3.717v-8.539l5.805 6.081v-5.541h1.224v8.491l-5.805-6.08v5.588h-1.224zm10.715-7.999c.492 0 1.175.048 1.751.432.671.444.996 1.212.996 1.942 0 .469-.12 1.188-.78 1.752-.636.539-1.367.623-1.955.623h-.552v3.25h-1.223v-7.999h1.763zm-.54 3.622h.552c1.056 0 1.559-.516 1.559-1.26 0-.443-.18-1.234-1.571-1.234h-.54v2.494zm211.331-73.254l1.679-8.599 2.782 6.212 2.807-6.212 1.512 8.599h-1.248l-.815-4.821-2.326 5.193-2.303-5.205-.84 4.833h-1.248zm11.423-8.743v5.385l1.644-1.691h1.559l-2.171 2.099 2.327 2.95h-1.487l-1.655-2.159-.216.216v1.943h-1.176v-8.743h1.175zm9.13 6.224c0 1.547-1.176 2.674-2.698 2.674s-2.699-1.127-2.699-2.674c0-1.559 1.176-2.663 2.699-2.663s2.698 1.104 2.698 2.663zm-1.199.012c0-1.151-.756-1.619-1.499-1.619s-1.5.468-1.5 1.619c0 .972.576 1.607 1.5 1.607s1.499-.635 1.499-1.607z"/><use xlink:href="#o" x="56.724" y="61.888"/><use xlink:href="#V" x="89.316" y="7.953"/><path d="M364.694 159.174h2.998v1.08h-5.313l3.274-3.97h-2.578v-1.08h4.869l-3.25 3.97z"/><use xlink:href="#r"/><path d="M374.463 160.254v-8.539l5.805 6.081v-5.541h1.223v8.491l-5.805-6.081v5.589h-1.223z"/><use xlink:href="#O" x="-44.674" y="-29.786"/><path d="M335.674 223.677a1.27 1.27 0 0 0-.359-.504c-.252-.204-.516-.288-.863-.288-.744 0-1.128.444-1.128.959 0 .24.084.66.864.971l.803.324c1.476.6 1.884 1.439 1.884 2.351 0 1.523-1.08 2.566-2.579 2.566-.924 0-1.475-.348-1.883-.803a2.59 2.59 0 0 1-.672-1.559l1.212-.264a1.73 1.73 0 0 0 .336 1.02c.228.288.563.479 1.043.479.743 0 1.319-.54 1.319-1.343 0-.815-.624-1.151-1.151-1.367l-.768-.324c-.66-.276-1.631-.828-1.631-2.027 0-1.08.839-2.111 2.339-2.111.863 0 1.354.324 1.606.54.216.192.444.468.612.804l-.984.576z"/><use xlink:href="#s"/><use xlink:href="#s" x="6.36"/><path d="M354.611 221.159h1.176v8.743h-1.176v-.528c-.516.6-1.151.684-1.511.684-1.56 0-2.447-1.295-2.447-2.687 0-1.643 1.128-2.65 2.459-2.65.372 0 1.02.096 1.499.72v-4.282zm-2.758 6.236c0 .875.552 1.607 1.403 1.607.744 0 1.428-.54 1.428-1.595 0-1.104-.684-1.631-1.428-1.631-.852 0-1.403.72-1.403 1.619z"/><use xlink:href="#s" x="19.081"/><use xlink:href="#S" x="-61.523" y="4.287"/><use xlink:href="#r" x="0.672" y="69.648"/><path d="M375.135 229.902v-8.54l5.805 6.081v-5.541h1.223v8.491l-5.805-6.081v5.589h-1.223z"/><use xlink:href="#O" x="-44.002" y="39.862"/><path d="M271.146 293.908v4.821c0 .433.012.96.252 1.38.24.407.779.827 1.487.827s1.247-.42 1.487-.827c.239-.42.252-.947.252-1.38v-4.821h1.223v5.146c0 .636-.132 1.403-.743 2.075-.42.455-1.127.936-2.219.936s-1.799-.48-2.219-.936c-.611-.672-.743-1.439-.743-2.075v-5.146h1.223zm10.103-.743h1.176v8.743h-1.176v-.527c-.516.6-1.151.684-1.511.684-1.56 0-2.447-1.296-2.447-2.687 0-1.644 1.128-2.651 2.459-2.651.372 0 1.02.097 1.499.72v-4.282zm-2.759 6.236c0 .876.552 1.607 1.403 1.607.744 0 1.428-.54 1.428-1.595 0-1.104-.684-1.632-1.428-1.632-.851.001-1.403.721-1.403 1.62zm7.093 1.428h2.998v1.079h-5.313l3.274-3.97h-2.578v-1.079h4.869l-3.25 3.97z"/><use xlink:href="#t"/><use xlink:href="#j" x="53.025" y="4"/><path d="M304.876 296.859h1.176v4.641c0 1.188-.132 2.039-.828 2.627-.323.264-.852.54-1.679.54-.588 0-1.176-.145-1.655-.624-.372-.372-.659-.959-.743-1.571h1.139c.048.276.192.6.372.792.144.155.432.348.911.348.492 0 .78-.192.924-.336.384-.372.384-.899.384-1.271v-.659c-.54.684-1.199.72-1.535.72-.647 0-1.188-.181-1.667-.684-.456-.48-.756-1.164-.756-2.003 0-.924.348-1.56.744-1.955.504-.516 1.104-.696 1.715-.696.504 0 1.067.168 1.499.685v-.554zm-2.243 1.259c-.3.276-.516.744-.516 1.283 0 .504.192.996.504 1.271.216.192.54.336.899.336.372 0 .696-.108.983-.408.348-.371.444-.804.444-1.187 0-.564-.18-.984-.479-1.271-.288-.288-.612-.36-.948-.36-.323 0-.623.084-.887.336zm5.557-1.259l1.307 2.89 1.415-3.322 1.416 3.322 1.307-2.89h1.319l-2.626 5.408-1.416-3.226-1.415 3.226-2.626-5.408h1.319zm11.039 0h1.176v5.049h-1.176v-.527c-.516.6-1.151.684-1.511.684-1.56 0-2.447-1.296-2.447-2.687 0-1.644 1.128-2.651 2.459-2.651.372 0 1.02.097 1.499.72v-.588zm-2.759 2.542c0 .876.552 1.607 1.403 1.607.744 0 1.428-.54 1.428-1.595 0-1.104-.684-1.632-1.428-1.632-.852.001-1.403.721-1.403 1.62z"/><use xlink:href="#g" x="-20.646" y="30.449"/><path d="M285.064 308.39c0 1.547-1.176 2.675-2.698 2.675s-2.699-1.128-2.699-2.675c0-1.56 1.176-2.663 2.699-2.663s2.698 1.103 2.698 2.663zm-1.199.011c0-1.151-.756-1.619-1.499-1.619s-1.5.468-1.5 1.619c0 .972.576 1.607 1.5 1.607s1.499-.635 1.499-1.607z"/><use xlink:href="#t" x="-3.263" y="9"/><use xlink:href="#j" x="49.761" y="13"/><path d="M299.131 306.938v3.97h-1.176v-3.97h-.491v-1.079h.491v-1.848h1.176v1.848h.899v1.079h-.899z"/><use xlink:href="#k" x="46.306" y="13"/><path d="M307.771 303.017c.432 0 .756.324.756.756s-.324.755-.756.755-.756-.323-.756-.755a.74.74 0 0 1 .756-.756zm.588 2.842v5.049h-1.176v-5.049h1.176z"/><use xlink:href="#j" x="67.51" y="13"/><use xlink:href="#m" x="-42.252" y="61.173"/><use xlink:href="#X" x="-51.375" y="-11.4"/><use xlink:href="#b" x="-93.363" y="-11.4"/></g><path fill="#85ae85" d="M254.49 138.52l4.149-6.373 4.991-7.313 4.641 7.164-6.817 7.261z"/><path d="M269.216 63.315l-1.929 5.928 4.297 4.592-1.629 4.742 3.407-1.483 3.562-7.777.292-4.075-5.928-3.261zm-26.578 56.992l-8.125 5.819 3.941 1.187-3.991 2.029 4.32-.011 4.546-3.097 4.538-2.678-.457-2.863zm17.332 17.769l1.484-1.039 1.183-2.37 3.855-3.409-2.668-4.593-.889 2.222-2.222 3.26z" class="G"/><g class="C"><path d="M216.616 127.461v6.848h2.351v1.151h-3.574v-8h1.223zm6.983 2.95h1.175v5.049h-1.175v-.528c-.516.6-1.151.684-1.511.684-1.559 0-2.446-1.295-2.446-2.687 0-1.643 1.127-2.65 2.458-2.65.372 0 1.02.096 1.499.72v-.588zm-2.758 2.543c0 .875.552 1.607 1.403 1.607.743 0 1.427-.54 1.427-1.595 0-1.104-.684-1.631-1.427-1.631-.851 0-1.403.719-1.403 1.619z"/><use xlink:href="#L" x="83.597" y="98.294"/><path d="M235.959 134.309c-.217.384-.528.72-.852.923-.408.264-.947.384-1.488.384-.671 0-1.223-.168-1.703-.647s-.743-1.175-.743-1.931c0-.779.276-1.535.804-2.075a2.3 2.3 0 0 1 1.691-.684c.803 0 1.318.348 1.619.66.647.671.707 1.607.707 2.135v.144h-3.621c.023.36.18.768.432 1.02.275.276.611.324.898.324.324 0 .564-.072.805-.252.203-.156.359-.36.467-.552l.984.551zm-1.164-2.051c-.048-.276-.18-.516-.359-.684-.156-.144-.408-.288-.792-.288-.407 0-.671.168-.827.324-.168.156-.3.396-.359.648h2.337zm5.198 3.202l1.679-8.599 2.783 6.212 2.807-6.212 1.511 8.599h-1.247l-.816-4.821-2.326 5.193-2.303-5.205-.84 4.833h-1.248zm13.942-5.049h1.175v5.049h-1.175v-.528c-.516.6-1.151.684-1.511.684-1.56 0-2.447-1.295-2.447-2.687 0-1.643 1.127-2.65 2.459-2.65.371 0 1.02.096 1.499.72v-.588zm-2.759 2.543c0 .875.553 1.607 1.404 1.607.742 0 1.427-.54 1.427-1.595 0-1.104-.685-1.631-1.427-1.631-.851 0-1.404.719-1.404 1.619zm5.412-2.543h1.176v.468c.504-.563 1.08-.6 1.367-.6.936 0 1.332.468 1.487.684.192.276.312.624.312 1.403v3.094h-1.175v-2.807c0-1.283-.479-1.319-.924-1.319-.527 0-1.067.072-1.067 1.703v2.423h-1.176v-5.049zm7.32 4.258l-2.16-4.258h1.416l1.439 2.951 1.463-2.951h1.319l-4.019 7.796h-1.318l1.86-3.538zm7.738-4.258h1.176v5.049h-1.176v-.528c-.516.6-1.151.684-1.511.684-1.56 0-2.447-1.295-2.447-2.687 0-1.643 1.128-2.65 2.459-2.65.372 0 1.02.096 1.499.72v-.588zm-2.757 2.543c0 .875.551 1.607 1.402 1.607.744 0 1.428-.54 1.428-1.595 0-1.104-.684-1.631-1.428-1.631-.852 0-1.402.719-1.402 1.619z"/><use xlink:href="#U" x="-177.812" y="-90.155"/><path d="M281.738 130.411h1.176v5.049h-1.176v-.528c-.516.6-1.151.684-1.511.684-1.56 0-2.447-1.295-2.447-2.687 0-1.643 1.128-2.65 2.459-2.65.372 0 1.02.096 1.499.72v-.588zm-2.759 2.543c0 .875.552 1.607 1.403 1.607.744 0 1.428-.54 1.428-1.595 0-1.104-.684-1.631-1.428-1.631-.851 0-1.403.719-1.403 1.619zm8.437 2.506v-8.54l5.806 6.081v-5.541h1.223v8.491l-5.805-6.081v5.589h-1.224z"/><use xlink:href="#W" x="-13.787" y="-16.841"/><path d="M257.283 62.794v6.848h2.351v1.151h-3.574v-8h1.223zm6.983 2.951h1.176v5.049h-1.176v-.528c-.516.6-1.151.684-1.512.684-1.559 0-2.445-1.295-2.445-2.687 0-1.643 1.127-2.65 2.458-2.65.372 0 1.02.096 1.499.72v-.588zm-2.758 2.542c0 .875.551 1.607 1.402 1.607.744 0 1.428-.54 1.428-1.595 0-1.104-.684-1.631-1.428-1.631-.851 0-1.402.72-1.402 1.619zm6.599-6.236v5.385l1.643-1.691h1.559l-2.17 2.099 2.326 2.95h-1.486l-1.656-2.159-.215.216v1.943h-1.176v-8.743h1.175zm8.518 7.592c-.216.384-.527.72-.852.923-.408.264-.947.384-1.487.384-.671 0-1.224-.168-1.703-.647s-.743-1.175-.743-1.931c0-.779.275-1.535.803-2.075.42-.42.973-.684 1.691-.684.804 0 1.319.348 1.619.66.648.671.708 1.607.708 2.135v.144h-3.622c.023.36.18.768.432 1.02.275.276.611.324.899.324a1.24 1.24 0 0 0 .804-.252c.203-.156.359-.36.468-.552l.983.551zm-1.164-2.051a1.22 1.22 0 0 0-.359-.684c-.156-.144-.408-.288-.791-.288-.408 0-.672.168-.828.324-.168.156-.299.396-.359.648h2.337zM256.06 79.794v-8.54l5.805 6.081v-5.541h1.224v8.491l-5.805-6.081v5.589h-1.224zm12.429-5.049h1.175v5.049h-1.175v-.528c-.516.6-1.151.684-1.511.684-1.56 0-2.447-1.295-2.447-2.687 0-1.643 1.127-2.65 2.459-2.65.371 0 1.02.096 1.499.72v-.588zm-2.759 2.542c0 .875.553 1.607 1.404 1.607.742 0 1.426-.54 1.426-1.595 0-1.104-.684-1.631-1.426-1.631-.851 0-1.404.72-1.404 1.619zm6.637-1.463v3.97h-1.176v-3.97h-.492v-1.08h.492v-1.847h1.176v1.847h.898v1.08h-.898zm1.692-1.079h1.176v.456c.132-.156.324-.324.492-.42.228-.132.455-.168.719-.168.288 0 .6.048.924.24l-.479 1.067c-.265-.168-.479-.18-.601-.18-.251 0-.503.036-.73.276-.324.348-.324.828-.324 1.163v2.615h-1.176v-5.049zm8.878 2.53c0 1.547-1.175 2.674-2.698 2.674s-2.699-1.127-2.699-2.674c0-1.559 1.176-2.663 2.699-2.663s2.698 1.104 2.698 2.663zm-1.201.012c0-1.151-.755-1.619-1.498-1.619s-1.5.467-1.5 1.619c0 .972.576 1.607 1.5 1.607s1.498-.635 1.498-1.607zm2.414-2.542h1.176v.468c.504-.563 1.08-.6 1.367-.6.936 0 1.332.468 1.487.684.192.276.312.624.312 1.403v3.094h-1.175v-2.807c0-1.283-.479-1.319-.923-1.319-.528 0-1.068.072-1.068 1.703v2.423h-1.176v-5.049z"/></g><path fill="none" d="M16.493 33.167l-5.442 5.399S2.431 41.785.037 41.785" class="D E F"/><path d="M156.619 91.393c0 3.255-.806 5.998-2.417 8.228-1.546 2.141-3.608 3.516-6.188 4.126-2.58-.61-4.643-1.985-6.189-4.126-1.611-2.229-2.417-4.973-2.417-8.228a7.97 7.97 0 0 1 .757-3.405c.391-.847.854-1.522 1.392-2.026 1.196.74 2.381 1.11 3.553 1.11s2.141-.362 2.905-1.086c.765.724 1.733 1.086 2.905 1.086s2.355-.37 3.552-1.11c.537.504 1.001 1.18 1.392 2.026.503 1.081.755 2.216.755 3.405z" class="B"/><path d="M147.368 94.731l-3.38.608-.001-1.034 3.374-1.394-.006-2.095c-.001-.471.141-.753.424-.846a.67.67 0 0 1 .473.006c.15.059.252.168.305.329a1.7 1.7 0 0 1 .063.505l.01 2.077 3.428 1.385.001 1.035-3.425-.594.005 2.161 1.134 1.183.003.775-1.769-1.165-1.764 1.178-.004-.776 1.138-1.201-.009-2.137z" class="C"/><path d="M324.344 121.737c0 3.255-.807 5.998-2.418 8.228-1.545 2.141-3.607 3.516-6.188 4.126-2.58-.61-4.643-1.985-6.189-4.126-1.611-2.229-2.418-4.973-2.418-8.228 0-1.188.254-2.323.758-3.405.391-.847.854-1.522 1.391-2.026 1.197.74 2.381 1.11 3.553 1.11s2.141-.362 2.906-1.086c.764.724 1.732 1.086 2.904 1.086s2.355-.37 3.553-1.11c.537.504 1 1.18 1.391 2.026.505 1.082.757 2.216.757 3.405z" class="B"/><path d="M315.092 125.076l-3.379.608-.002-1.034 3.375-1.394-.006-2.095c-.002-.471.141-.753.424-.846a.67.67 0 0 1 .473.006c.15.059.252.168.305.329a1.7 1.7 0 0 1 .063.505l.01 2.077 3.428 1.385v1.035l-3.424-.594.004 2.161 1.135 1.183.002.775-1.768-1.165-1.764 1.178-.004-.776 1.137-1.201-.009-2.137z" class="C"/><path d="M411.059 223.721c0 3.255-.805 5.998-2.416 8.228-1.547 2.141-3.609 3.516-6.189 4.125a10.32 10.32 0 0 1-6.189-4.125c-1.611-2.23-2.416-4.973-2.416-8.228a7.97 7.97 0 0 1 .756-3.405c.391-.847.855-1.522 1.393-2.026 1.195.74 2.381 1.11 3.553 1.11s2.141-.362 2.904-1.086c.766.724 1.734 1.086 2.906 1.086s2.355-.37 3.551-1.11c.537.504 1.002 1.18 1.393 2.026a8 8 0 0 1 .754 3.405z" class="B"/><path d="M401.809 227.06l-3.381.608v-1.034l3.373-1.394-.006-2.095c0-.471.141-.753.424-.846a.67.67 0 0 1 .473.006c.15.059.252.168.305.329a1.7 1.7 0 0 1 .063.505l.01 2.077 3.428 1.385.002 1.035-3.426-.594.006 2.161 1.133 1.183.004.775-1.77-1.165-1.764 1.178-.004-.777 1.139-1.201-.009-2.136z" class="C"/><path d="M425.9 251.018c0 3.256-.807 5.998-2.418 8.229-1.545 2.141-3.607 3.516-6.188 4.125a10.32 10.32 0 0 1-6.189-4.125c-1.611-2.23-2.418-4.973-2.418-8.229a7.97 7.97 0 0 1 .758-3.404c.391-.848.854-1.523 1.391-2.027 1.197.74 2.381 1.111 3.553 1.111s2.141-.363 2.906-1.086c.764.723 1.732 1.086 2.904 1.086s2.355-.371 3.553-1.111c.537.504 1 1.18 1.391 2.027a7.95 7.95 0 0 1 .757 3.404z" class="B"/><g class="C"><path d="M416.648 254.357l-3.379.607-.002-1.033 3.375-1.395-.006-2.094c-.002-.471.141-.754.424-.846.164-.055.322-.055.473.006s.252.168.305.328c.041.123.061.291.063.506l.01 2.076 3.428 1.385v1.035l-3.424-.594.004 2.162 1.135 1.182.002.775-1.768-1.164-1.764 1.178-.004-.777 1.137-1.201-.009-2.136zM201.015 109.33v-8.54l5.805 6.081v-5.541h1.224v8.491l-5.805-6.081v5.589h-1.224zm12.429-5.05h1.175v4.642c0 1.188-.132 2.039-.828 2.626-.324.264-.852.54-1.679.54-.588 0-1.175-.144-1.655-.624-.372-.372-.66-.959-.744-1.571h1.14c.048.276.192.6.372.792.144.156.432.348.912.348.492 0 .779-.192.923-.336.384-.372.384-.899.384-1.271v-.66c-.54.684-1.199.719-1.535.719-.647 0-1.188-.18-1.667-.684-.456-.479-.756-1.163-.756-2.003 0-.923.348-1.559.744-1.955.504-.516 1.104-.696 1.715-.696.503 0 1.067.168 1.499.684v-.551zm-2.242 1.26c-.3.276-.516.744-.516 1.283 0 .504.192.996.503 1.271.216.192.54.336.9.336.372 0 .695-.108.983-.408.348-.372.444-.804.444-1.188 0-.563-.18-.983-.48-1.271-.288-.288-.612-.359-.947-.359-.324 0-.624.084-.887.336zm10.042 1.271c0 1.547-1.175 2.674-2.699 2.674s-2.698-1.127-2.698-2.674c0-1.559 1.175-2.663 2.698-2.663s2.699 1.104 2.699 2.663zm-1.2.012c0-1.151-.755-1.619-1.499-1.619s-1.499.467-1.499 1.619c0 .972.576 1.607 1.499 1.607s1.499-.636 1.499-1.607z"/><use xlink:href="#N" x="66.723" y="63.163"/><path d="M231.348 106.811c0 1.547-1.176 2.674-2.699 2.674s-2.699-1.127-2.699-2.674c0-1.559 1.176-2.663 2.699-2.663s2.699 1.104 2.699 2.663zm-1.2.012c0-1.151-.755-1.619-1.499-1.619s-1.499.467-1.499 1.619c0 .972.576 1.607 1.499 1.607s1.499-.636 1.499-1.607zm2.415-2.543h1.175v.468a1.74 1.74 0 0 1 1.368-.6c.935 0 1.33.468 1.486.684.191.276.313.624.313 1.403v3.094h-1.176v-2.807c0-1.283-.48-1.319-.924-1.319-.527 0-1.067.072-1.067 1.703v2.423h-1.175v-5.049zm9.525 0h1.176v4.642c0 1.188-.132 2.039-.828 2.626-.323.264-.852.54-1.679.54-.588 0-1.176-.144-1.655-.624-.371-.372-.66-.959-.744-1.571h1.14c.048.276.192.6.372.792.144.156.432.348.911.348.492 0 .78-.192.924-.336.384-.372.384-.899.384-1.271v-.66c-.54.684-1.199.719-1.535.719-.647 0-1.188-.18-1.667-.684-.456-.479-.756-1.163-.756-2.003 0-.923.349-1.559.743-1.955.504-.516 1.104-.696 1.716-.696.504 0 1.067.168 1.499.684v-.551zm-2.243 1.26c-.3.276-.516.744-.516 1.283 0 .504.192.996.504 1.271.216.192.54.336.899.336.372 0 .696-.108.983-.408.349-.372.444-.804.444-1.188 0-.563-.18-.983-.48-1.271-.287-.288-.611-.359-.947-.359-.323 0-.623.084-.887.336z"/><use xlink:href="#u"/><use xlink:href="#U" x="-201.012" y="-116.286"/><use xlink:href="#u" x="10.104"/><path d="M206.939 114.201c-.888-.804-1.715-.888-2.171-.888-1.739 0-2.915 1.283-2.915 3.046 0 1.691 1.224 2.998 2.927 2.998.959 0 1.703-.492 2.159-.923v1.451c-.804.48-1.643.6-2.195.6-1.451 0-2.363-.66-2.831-1.103-.936-.875-1.283-1.895-1.283-3.022 0-1.475.612-2.495 1.283-3.13.828-.78 1.787-1.043 2.891-1.043.731 0 1.439.132 2.135.576v1.438zm6.097 4.197h-3.418l-.875 1.931h-1.319l3.982-8.467 3.79 8.467h-1.319l-.841-1.931zm-.492-1.151l-1.187-2.71-1.235 2.71h2.422z"/></g><g fill="#821619"><path d="M212.504 93.763a1.27 1.27 0 0 0-.36-.504c-.252-.204-.516-.288-.863-.288-.744 0-1.127.444-1.127.959 0 .24.084.66.863.972l.804.324c1.475.6 1.883 1.439 1.883 2.351 0 1.523-1.079 2.566-2.579 2.566-.923 0-1.475-.348-1.883-.803-.432-.48-.624-1.008-.671-1.56l1.211-.264a1.73 1.73 0 0 0 .336 1.02c.228.288.563.479 1.043.479.744 0 1.319-.54 1.319-1.343 0-.815-.624-1.151-1.151-1.367l-.768-.324c-.66-.276-1.631-.828-1.631-2.027 0-1.08.84-2.111 2.339-2.111.864 0 1.355.324 1.607.54.216.192.444.468.612.804l-.984.576z"/><use xlink:href="#p" x="158.074" y="-69.18"/><use xlink:href="#N" x="65.063" y="53.821"/><path d="M228.943 98.836c-.216.384-.528.72-.852.923-.408.264-.947.384-1.487.384-.671 0-1.223-.168-1.703-.647s-.743-1.175-.743-1.931c0-.779.275-1.535.803-2.075a2.3 2.3 0 0 1 1.691-.684c.804 0 1.319.348 1.619.66.648.671.708 1.607.708 2.135v.144h-3.622c.024.36.18.768.432 1.02.276.276.612.324.899.324.324 0 .564-.072.804-.252.204-.156.36-.36.468-.552l.983.551zm-1.163-2.051c-.048-.276-.18-.516-.36-.684-.156-.144-.408-.288-.792-.288a1.13 1.13 0 0 0-.827.324c-.168.156-.3.396-.36.648h2.339zm2.413-1.847h1.176v.468a1.74 1.74 0 0 1 1.367-.6c.936 0 1.331.468 1.486.684.192.276.313.624.313 1.403v3.094h-1.176V97.18c0-1.283-.479-1.319-.923-1.319-.528 0-1.067.072-1.067 1.703v2.423h-1.176v-5.049zm9.526 0h1.176v4.642c0 1.188-.132 2.039-.828 2.626-.323.264-.851.54-1.678.54-.588 0-1.176-.144-1.656-.624-.371-.372-.659-.959-.743-1.571h1.14c.048.276.191.6.371.792.145.156.432.348.912.348.492 0 .779-.192.924-.336.383-.372.383-.899.383-1.271v-.659c-.539.684-1.199.719-1.535.719-.646 0-1.188-.18-1.666-.684-.456-.479-.756-1.163-.756-2.003 0-.923.348-1.559.743-1.955.504-.516 1.104-.696 1.716-.696.503 0 1.066.168 1.498.684v-.552zm-2.242 1.259c-.3.276-.516.744-.516 1.283 0 .504.191.996.504 1.271.216.192.539.336.899.336.372 0 .695-.108.983-.408.348-.372.443-.804.443-1.188 0-.563-.18-.983-.479-1.271-.288-.288-.612-.36-.947-.36-.324.001-.624.085-.887.337zm9.429 2.639c-.215.384-.527.72-.852.923-.407.264-.947.384-1.486.384-.672 0-1.224-.168-1.703-.647s-.744-1.175-.744-1.931c0-.779.275-1.535.804-2.075a2.3 2.3 0 0 1 1.691-.684c.804 0 1.319.348 1.618.66.648.671.709 1.607.709 2.135v.144h-3.623c.024.36.18.768.432 1.02.276.276.612.324.9.324.323 0 .563-.072.803-.252.204-.156.36-.36.469-.552l.982.551zm-1.163-2.051c-.048-.276-.18-.516-.359-.684-.156-.144-.408-.288-.792-.288-.408 0-.672.168-.827.324-.168.156-.3.396-.36.648h2.338zm3.638-.767v3.97h-1.176v-3.97h-.491v-1.08h.491v-1.847h1.176v1.847h.899v1.08h-.899z"/><use xlink:href="#T" x="-185.667" y="-125.628"/><path d="M256.75,99.987v-8.539l5.805,6.081v-5.541h1.223v8.491l-5.805-6.081v5.589H256.75z"/><use xlink:href="#O" x="-162.387" y="-90.052"/><path d="M239.738 32.567c-11.502 0-20.822 9.322-20.822 20.822a20.76 20.76 0 0 0 .795 5.698c.314 1.115.662 2.223 1.209 3.224 4.27 7.816 18.818 30.256 18.818 30.256s14.547-22.439 18.816-30.256c.547-1.002.893-2.108 1.211-3.224.512-1.812.795-3.722.795-5.698.001-11.5-9.322-20.822-20.822-20.822zm0 29.991c-2.902 0-5.496-1.358-7.178-3.471a9.14 9.14 0 0 1-1.992-5.698c0-5.056 4.115-9.168 9.17-9.168a9.18 9.18 0 0 1 9.168 9.168 9.13 9.13 0 0 1-1.992 5.698c-1.682 2.113-4.271 3.471-7.176 3.471z"/></g><path fill="#75682c" d="M323.156 212.033c-11.502 0-20.822 9.322-20.822 20.822a20.76 20.76 0 0 0 .795 5.698c.314 1.115.662 2.223 1.209 3.224 4.27 7.816 18.818 30.256 18.818 30.256s14.547-22.439 18.816-30.256c.547-1.002.893-2.108 1.211-3.224.512-1.812.795-3.722.795-5.698.001-11.5-9.322-20.822-20.822-20.822zm-1 28.991c-2.902 0-5.496-1.358-7.178-3.471a9.14 9.14 0 0 1-1.992-5.698c0-5.056 4.115-9.168 9.17-9.168a9.18 9.18 0 0 1 9.168 9.168 9.13 9.13 0 0 1-1.992 5.698c-1.682 2.113-4.271 3.471-7.176 3.471z"/><defs ><path id="B" d="M136.609 403.576h-3.692l-1.157 2.847h-.624l3.653-8.931 3.602 8.931h-.624l-1.158-2.847zm-.208-.52l-1.625-4.108-1.651 4.108h3.276z"/><path id="C" d="M352.629 453.683l.988-8.971 3.757 8.021 3.757-8.021.988 8.971h-.572l-.767-6.968-3.406 7.279-3.406-7.279-.767 6.968h-.572z"/><path id="D" d="M13.099 62.088l-2.808-4.095h-.26v4.095h-.572v-8.671h1.248c.663 0 1.261.052 1.833.442.676.468.897 1.183.897 1.859 0 .858-.377 1.742-1.456 2.106-.455.156-.871.169-1.066.169l2.834 4.095h-.65zm-3.068-4.615h.832c1.235 0 1.976-.65 1.976-1.768 0-.871-.429-1.326-.767-1.508-.364-.208-.988-.26-1.326-.26h-.715v3.536z"/><path id="E" d="M13.519 291.655c2.496 0 4.459 1.963 4.459 4.498 0 2.548-1.963 4.498-4.459 4.498s-4.473-1.963-4.473-4.498 1.976-4.498 4.473-4.498zm0 .598c-2.223 0-3.952 1.664-3.952 3.9s1.729 3.9 3.952 3.9c2.21 0 3.939-1.664 3.939-3.9s-1.729-3.9-3.939-3.9z"/><path id="F" d="M16.291 100.803v5.421c0 .819.039 1.352.364 1.872.507.819 1.456 1.001 2.015 1.001s1.508-.182 2.015-1.001c.325-.52.364-1.053.364-1.872v-5.421h.572v5.421c0 .949-.052 1.573-.494 2.223-.65.949-1.677 1.17-2.457 1.17s-1.807-.221-2.457-1.17c-.442-.65-.494-1.274-.494-2.223v-5.421h.572z"/><path id="G" d="M189.975 433.5v3.692l2.847 1.157v.624l-8.931-3.653 8.931-3.602v.624l-2.847 1.158zm-.52.208l-4.108 1.625 4.108 1.651v-3.276z"/><path id="H" d="M55.025 11.505h-3.692l-1.157 2.847h-.624l3.653-8.931 3.601 8.931h-.624l-1.157-2.847zm-.208-.52l-1.625-4.108-1.651 4.108h3.276z"/><path id="I" d="M281.296 219.515c0 1.547-1.176 2.674-2.698 2.674s-2.699-1.127-2.699-2.674c0-1.559 1.176-2.663 2.699-2.663s2.698 1.104 2.698 2.663zm-1.199.012c0-1.151-.756-1.619-1.499-1.619s-1.5.467-1.5 1.619c0 .972.576 1.607 1.5 1.607s1.499-.635 1.499-1.607z"/><path id="J" d="M455.118 320.143h-8.763l7.619-7.28h-7.527v-.572h8.892l-7.618 7.28h7.397v.572z"/><path id="K" d="M452.271 294.519v3.692l2.847 1.157v.624l-8.932-3.653 8.932-3.602v.624l-2.847 1.158zm-.52.208l-4.108 1.625 4.108 1.651v-3.276z"/><path id="L" d="M143.843 28.423v5.385l1.643-1.691h1.559l-2.171 2.099 2.327 2.95h-1.487l-1.655-2.159-.216.216v1.943h-1.175v-8.743h1.175z"/><path id="M" d="M139.367 38.274c.432 0 .756.324.756.755s-.324.756-.756.756-.755-.324-.755-.756.323-.755.755-.755zm.588 2.843v5.049h-1.175v-5.049h1.175z"/><path id="N" d="M155.747 41.117h1.175v.456c.132-.156.324-.324.492-.42.228-.132.456-.168.72-.168.288 0 .6.048.923.24l-.479 1.067c-.264-.168-.48-.18-.6-.18-.252 0-.504.036-.732.276-.324.348-.324.828-.324 1.163v2.615h-1.175v-5.049z"/><path id="O" d="M429.852 182.04c.491 0 1.175.048 1.751.432.672.444.995 1.211.995 1.943 0 .468-.12 1.188-.779 1.751-.636.54-1.367.624-1.955.624h-.552v3.25h-1.224v-8h1.764zm-.54 3.622h.552c1.056 0 1.56-.516 1.56-1.259 0-.444-.181-1.235-1.571-1.235h-.54v2.494z"/><path id="P" d="M457.774 184.99h1.176v5.049h-1.176v-.528c-.516.6-1.151.684-1.511.684-1.56 0-2.447-1.295-2.447-2.687 0-1.643 1.128-2.65 2.459-2.65.372 0 1.02.096 1.499.72v-.588zm-2.758 2.542c0 .876.552 1.607 1.403 1.607.744 0 1.428-.54 1.428-1.595 0-1.104-.684-1.631-1.428-1.631-.852 0-1.403.72-1.403 1.619z"/><path id="Q" d="M429.502 289.55h1.176v5.049h-1.176v-.527c-.516.6-1.151.684-1.511.684-1.56 0-2.447-1.296-2.447-2.687 0-1.644 1.128-2.65 2.459-2.65.372 0 1.02.096 1.499.719v-.588zm-2.759 2.542c0 .876.552 1.607 1.403 1.607.744 0 1.428-.54 1.428-1.596 0-1.103-.684-1.631-1.428-1.631-.851.001-1.403.72-1.403 1.62z"/><path id="R" d="M422.495 220.566h1.176v5.049h-1.176v-.528c-.516.6-1.151.684-1.511.684-1.56 0-2.447-1.295-2.447-2.687 0-1.643 1.128-2.65 2.459-2.65.372 0 1.02.096 1.499.72v-.588zm-2.759 2.542c0 .875.552 1.607 1.403 1.607.744 0 1.428-.54 1.428-1.595 0-1.104-.684-1.631-1.428-1.631-.851.001-1.403.72-1.403 1.619z"/><path id="S" d="M425.149 220.566h1.176v.468a1.74 1.74 0 0 1 1.367-.6c.936 0 1.331.468 1.487.684.191.276.312.624.312 1.403v3.094h-1.176v-2.807c0-1.283-.479-1.319-.923-1.319-.528 0-1.067.072-1.067 1.703v2.423h-1.176v-5.049z"/><path id="T" d="M437.328 217.724c.432 0 .756.324.756.755s-.324.756-.756.756-.755-.324-.755-.756.323-.755.755-.755zm.588 2.842v5.049h-1.176v-5.049h1.176z"/><path id="U" d="M452.125 220.566h1.176v.456c.132-.156.324-.324.492-.42.228-.132.455-.168.719-.168.288 0 .6.048.924.24l-.479 1.067c-.264-.168-.479-.18-.6-.18-.252 0-.504.036-.731.276-.324.348-.324.828-.324 1.163v2.615h-1.176v-5.049z"/><path id="V" d="M271.285 147.252h1.176v5.049h-1.176v-.528c-.516.6-1.151.684-1.511.684-1.56 0-2.447-1.295-2.447-2.687 0-1.643 1.128-2.65 2.459-2.65.372 0 1.02.096 1.499.72v-.588zm-2.759 2.542c0 .876.552 1.607 1.403 1.607.744 0 1.428-.54 1.428-1.595 0-1.104-.684-1.631-1.428-1.631-.851 0-1.403.72-1.403 1.619z"/><path id="W" d="M311.919 144.302c.491 0 1.175.048 1.751.432.672.444.995 1.211.995 1.943 0 .468-.12 1.188-.779 1.751-.636.54-1.367.624-1.955.624h-.552v3.25h-1.223v-8h1.763zm-.54 3.622h.552c1.056 0 1.56-.516 1.56-1.259 0-.444-.181-1.235-1.571-1.235h-.54v2.494z"/><path id="X" d="M321.299 331.308v-8.539l5.805 6.08v-5.541h1.223v8.492l-5.805-6.081v5.589h-1.223z"/><path id="Y" d="M340.22 330.156c-.216.384-.527.72-.851.924-.408.264-.948.384-1.487.384-.672 0-1.224-.168-1.703-.648s-.744-1.175-.744-1.931c0-.779.276-1.535.804-2.074a2.3 2.3 0 0 1 1.691-.684c.804 0 1.319.348 1.619.659.647.672.707 1.607.707 2.135v.144h-3.622c.024.36.181.768.433 1.02.275.276.611.324.899.324.323 0 .563-.072.803-.252.204-.156.36-.359.468-.552l.983.551zm-1.163-2.051c-.048-.276-.18-.516-.359-.684-.156-.145-.408-.288-.792-.288a1.13 1.13 0 0 0-.827.324c-.168.155-.3.396-.36.647h2.338z"/><path id="Z" d="M341.482 326.259h1.176v.455a2.08 2.08 0 0 1 .492-.42c.228-.132.455-.167.719-.167.288 0 .6.048.924.239l-.479 1.067c-.264-.168-.479-.18-.6-.18-.252 0-.504.036-.731.275-.324.349-.324.828-.324 1.164v2.614h-1.176v-5.047z"/><path id="a" d="M349.615 330.156a2.64 2.64 0 0 1-.852.924c-.407.264-.947.384-1.486.384-.672 0-1.224-.168-1.703-.648s-.744-1.175-.744-1.931c0-.779.276-1.535.804-2.074a2.3 2.3 0 0 1 1.691-.684c.804 0 1.319.348 1.619.659.647.672.707 1.607.707 2.135v.144h-3.622c.024.36.181.768.432 1.02.276.276.612.324.9.324.323 0 .563-.072.803-.252.204-.156.36-.359.468-.552l.983.551zm-1.163-2.051c-.048-.276-.18-.516-.359-.684-.156-.145-.408-.288-.792-.288a1.13 1.13 0 0 0-.827.324c-.168.155-.3.396-.36.647h2.338z"/><path id="b" d="M374.002 323.308c.491 0 1.175.049 1.751.433.672.443.995 1.211.995 1.942 0 .468-.12 1.188-.779 1.751-.636.54-1.367.624-1.955.624h-.552v3.25h-1.224v-8h1.764zm-.54 3.622h.552c1.056 0 1.56-.516 1.56-1.259 0-.444-.181-1.235-1.571-1.235h-.54v2.494z"/><path id="c" d="M347.146 335.259v2.89c0 .3.012.648.216.912.156.204.432.348.768.348s.611-.144.768-.348c.204-.264.216-.612.216-.912v-2.89h1.176v2.926c0 .647-.072 1.188-.54 1.655-.456.456-1.079.624-1.643.624-.517 0-1.14-.156-1.596-.624-.468-.468-.54-1.008-.54-1.655v-2.926h1.175z"/><path id="d" d="M330.749 125.991l1.679-8.599 2.783 6.212 2.806-6.212 1.512 8.599h-1.247l-.816-4.821-2.326 5.193-2.303-5.205-.84 4.833h-1.248z"/><path id="e" d="M349.563 122.273c-.12-.192-.348-.432-.72-.432-.168 0-.287.06-.359.132-.061.06-.108.156-.108.264 0 .132.061.216.168.288.072.048.145.072.396.204l.6.3c.264.132.516.264.707.468.276.276.372.588.372.936 0 .456-.168.852-.443 1.151-.396.432-.888.563-1.416.563-.323 0-.731-.048-1.091-.324-.288-.216-.528-.563-.647-.923l.959-.456c.06.168.168.384.276.48.071.072.239.192.516.192.18 0 .371-.06.479-.168.096-.096.168-.252.168-.396s-.048-.264-.156-.384c-.144-.144-.312-.228-.504-.312l-.432-.204c-.228-.108-.504-.24-.695-.432a1.1 1.1 0 0 1-.36-.852c0-.408.156-.804.42-1.08.229-.24.612-.479 1.235-.479.36 0 .647.072.936.264.168.108.396.3.576.624l-.877.576z"/><path id="f" d="M351.677 117.248h1.176v4.125c.504-.516 1.056-.563 1.355-.563.923 0 1.343.479 1.487.684.312.456.323 1.043.323 1.403v3.094h-1.175v-2.986c0-.3 0-.624-.229-.875-.132-.144-.359-.264-.659-.264-.396 0-.708.191-.863.419-.168.24-.24.624-.24 1.271v2.435h-1.176v-8.743z"/><path id="g" d="M290.33 280.459l1.679-8.6 2.782 6.213 2.807-6.213 1.512 8.6h-1.248l-.815-4.821-2.326 5.193-2.303-5.205-.84 4.833h-1.248z"/><path id="h" d="M339.036 272.459c.491 0 1.175.049 1.751.433.672.443.995 1.211.995 1.942 0 .468-.12 1.188-.779 1.751-.636.54-1.367.624-1.955.624h-.552v3.25h-1.223v-8h1.763zm-.54 3.622h.552c1.056 0 1.56-.516 1.56-1.259 0-.444-.181-1.235-1.571-1.235h-.54v2.494z"/><path id="i" d="M235.69 292.859h1.176v.455a2.08 2.08 0 0 1 .492-.42c.228-.132.455-.168.719-.168.288 0 .6.049.924.24l-.479 1.067c-.264-.168-.479-.18-.6-.18-.252 0-.504.036-.731.275-.324.349-.324.828-.324 1.164v2.614h-1.176v-5.047z"/><path id="j" d="M242.326 292.859h1.176v.468a1.74 1.74 0 0 1 1.367-.601c.936 0 1.331.468 1.487.685.191.275.312.623.312 1.402v3.095h-1.176v-2.807c0-1.283-.479-1.319-.923-1.319-.528 0-1.067.072-1.067 1.703v2.423h-1.176v-5.049z"/><path id="k" d="M258.212 292.859h1.176v5.049h-1.176v-.527c-.516.6-1.151.684-1.511.684-1.56 0-2.447-1.296-2.447-2.687 0-1.644 1.128-2.651 2.459-2.651.372 0 1.02.097 1.499.72v-.588zm-2.759 2.542c0 .876.552 1.607 1.403 1.607.744 0 1.428-.54 1.428-1.595 0-1.104-.684-1.632-1.428-1.632-.851.001-1.403.721-1.403 1.62z"/><path id="l" d="M342.689 244.686h1.176v5.049h-1.176v-.527c-.516.6-1.151.684-1.511.684-1.56 0-2.447-1.296-2.447-2.687 0-1.644 1.128-2.651 2.459-2.651.372 0 1.02.097 1.499.72v-.588zm-2.758 2.542c0 .876.552 1.607 1.403 1.607.744 0 1.428-.54 1.428-1.595 0-1.104-.684-1.632-1.428-1.632-.852 0-1.403.72-1.403 1.62z"/><path id="m" d="M360.126 246.017c-.12-.192-.348-.432-.72-.432-.168 0-.287.06-.359.132-.061.06-.108.155-.108.264 0 .132.061.216.168.288.072.048.145.071.396.204l.6.3c.264.132.516.264.707.468.276.275.372.587.372.935 0 .456-.168.852-.443 1.151-.396.433-.888.564-1.416.564-.323 0-.731-.048-1.091-.324-.288-.216-.528-.563-.647-.924l.959-.455c.06.168.168.384.276.479.071.072.239.191.516.191.18 0 .371-.06.479-.167a.6.6 0 0 0 .168-.396c0-.144-.048-.264-.156-.384-.144-.144-.312-.228-.504-.312l-.432-.204c-.228-.107-.504-.239-.695-.432a1.1 1.1 0 0 1-.36-.852c0-.407.156-.804.42-1.079.229-.24.612-.48 1.235-.48.36 0 .647.072.936.265a1.73 1.73 0 0 1 .576.623l-.877.577z"/><path id="n" d="M374.922 244.686h1.176v5.049h-1.176v-.527c-.516.6-1.151.684-1.511.684-1.56 0-2.447-1.296-2.447-2.687 0-1.644 1.128-2.651 2.459-2.651.372 0 1.02.097 1.499.72v-.588zm-2.759 2.542c0 .876.552 1.607 1.403 1.607.744 0 1.428-.54 1.428-1.595 0-1.104-.684-1.632-1.428-1.632-.851 0-1.403.72-1.403 1.62z"/><path id="o" d="M291.758 93.317h1.176v.468c.396-.479.863-.6 1.247-.6.528 0 1.02.252 1.308.744.42-.6 1.056-.744 1.499-.744.611 0 1.151.288 1.439.792.096.168.264.54.264 1.271v3.118h-1.176v-2.782c0-.564-.06-.792-.107-.9-.072-.192-.252-.444-.672-.444-.288 0-.54.156-.695.372-.204.288-.228.72-.228 1.151v2.603h-1.176v-2.782c0-.564-.06-.792-.108-.9-.071-.192-.251-.444-.671-.444-.288 0-.54.156-.696.372-.203.288-.228.72-.228 1.151v2.603h-1.176v-5.049z"/><path id="p" d="M61.473 168.016c-.216.384-.528.72-.852.923-.408.264-.947.384-1.487.384-.671 0-1.223-.168-1.703-.647s-.744-1.175-.744-1.931c0-.779.276-1.535.804-2.075a2.3 2.3 0 0 1 1.691-.684c.803 0 1.319.348 1.619.66.648.671.708 1.607.708 2.135v.144h-3.622c.024.36.18.768.432 1.02.276.276.612.324.899.324.324 0 .564-.072.804-.252.204-.156.36-.36.468-.552l.983.551zm-1.163-2.051c-.048-.276-.18-.516-.359-.684-.156-.144-.408-.288-.792-.288a1.13 1.13 0 0 0-.827.324c-.168.156-.3.396-.36.648h2.338z"/><path id="q" d="M25.805 232.836h1.175v5.049h-1.175v-.527c-.516.6-1.151.684-1.511.684-1.559 0-2.447-1.295-2.447-2.687 0-1.644 1.127-2.65 2.459-2.65.372 0 1.02.096 1.499.72v-.589zm-2.758 2.543c0 .875.552 1.607 1.403 1.607.743 0 1.427-.54 1.427-1.596 0-1.104-.684-1.631-1.427-1.631-.851.001-1.403.72-1.403 1.62z"/><path id="r" d="M369.374 152.362c.432 0 .756.324.756.755s-.324.756-.756.756-.755-.324-.755-.756.323-.755.755-.755zm.588 2.843v5.049h-1.176v-5.049h1.176z"/><path id="s" d="M341.891 224.853h1.176v5.049h-1.176v-.528c-.516.6-1.151.684-1.511.684-1.56 0-2.447-1.295-2.447-2.687 0-1.643 1.128-2.65 2.459-2.65.372 0 1.02.096 1.499.72v-.588zm-2.759 2.542c0 .875.552 1.607 1.403 1.607.744 0 1.428-.54 1.428-1.595 0-1.104-.684-1.631-1.428-1.631-.851 0-1.403.72-1.403 1.619z"/><path id="t" d="M290.73 296.859v2.89c0 .3.012.648.216.912.156.204.432.348.768.348s.611-.144.768-.348c.204-.264.216-.612.216-.912v-2.89h1.176v2.926c0 .647-.072 1.188-.54 1.655-.456.456-1.079.624-1.644.624-.516 0-1.139-.156-1.595-.624-.468-.468-.54-1.008-.54-1.655v-2.926h1.175z"/><path id="u" d="M249.887 106.811c0 1.547-1.176 2.674-2.698 2.674s-2.699-1.127-2.699-2.674c0-1.559 1.176-2.663 2.699-2.663s2.698 1.104 2.698 2.663zm-1.199.012c0-1.151-.756-1.619-1.499-1.619s-1.5.467-1.5 1.619c0 .972.576 1.607 1.5 1.607s1.499-.636 1.499-1.607z"/></defs></svg>